<svg xmlns="http://www.w3.org/2000/svg" width="62" height="83" fill="none" viewBox="0 0 62 83"><g fill="#cfa648" clip-path="url(#a)"><path d="M21.43 11.67c1.77 1.92 3.99 3.99 4.88 3.4 1.63-.89-1.18-8.13-1.77-9.16a3.3 3.3 0 0 0-1.09-1.12c-.9-.57-2.06-.55-3.01-.08l-.03.02c-1.33.74-1.77 2.81-1.03 4.14.15.44 1.03 1.62 2.07 2.81zm9.3 2.22c2.22 0 3.84-8.87 3.84-10.34 0-1.77-1.78-3.55-3.84-3.55-2.22 0-3.84 1.77-3.84 3.55 0 1.48 1.62 10.34 3.84 10.34m18.03 12.12c-1.18 1.33-2.21 2.66-1.77 3.25.3.44.89.59 1.77.44 2.37-.15 6.35-1.77 7.09-2.22 1.33-.74 1.92-2.66 1.18-4.14s-2.66-1.92-4.14-1.03c-.59.3-2.66 2.07-4.14 3.69zM39.9 11.67c1.03-1.18 1.92-2.37 2.22-2.81.74-1.33.44-3.4-1.04-4.14-.29-.3-.74-.3-1.18-.44-1.18-.15-2.37.59-2.96 1.62-.74 1.04-3.4 8.28-1.92 9.16 1.04.59 3.25-1.48 4.88-3.4zM11.97 22.31c.3.3.89.74.89.74 1.78 1.51 3.55 2.36 5.32 2.66 1.03.15 2.22.15 3.25-.3.6-.24.89-.46 1.33-.89 2.07-2.22 1.48-6.35-1.33-9.9-.3-.29-.59-.74-.89-1.03-.92-1.06-1.48-1.62-2.36-2.22-.74-.44-1.33-.74-2.22-.74-.74 0-1.33 1.33-.89 2.07.74 1.03 2.36 2.51 3.1 3.99.44.74.44 1.62 0 2.36 0 0-.15.3-.3.44-1.63 1.48-3.55.15-5.02-1.18-.51-.41-.95-.82-1.37-1.18-.6-.52-1.51-.59-2.11-.08-.22.19-.37.42-.37.66-.15 1.63 1.48 3.1 2.96 4.58zm27.93-7.68c-2.81 3.4-3.4 7.68-1.18 9.9.53.54 1.18.96 1.91 1.13.84.2 1.75.17 2.66.06 1.77-.3 3.69-1.18 5.46-2.66.84-.66 3.99-3.7 3.84-5.32-.09-.32-.16-.47-.39-.65-.65-.52-1.59-.45-2.21.1-.39.35-.85.74-1.24 1.13-1.62 1.33-3.55 2.66-5.02 1.18-.53-.55-.81-1.32-.65-2.07.05-.24.12-.48.21-.74.74-1.48 2.36-2.96 3.1-3.99.44-.74.02-2.01-.89-2.07-.74-.05-1.48.3-2.22.74-1.05.72-2.73 2.32-3.4 3.25zM13.45 33.69c0-.44-.3-.74-.59-1.03-2.07-1.63-8.27-2.81-9.46-2.81-1.77 0-3.4 1.77-3.4 3.84s1.62 3.84 3.4 3.84c1.18 0 7.39-1.18 9.46-2.81.3-.29.59-.74.59-1.03m42.4 6.21c-.74-.44-4.73-2.07-7.09-2.22-.89-.15-1.48 0-1.77.3-.44.74.59 2.07 1.77 3.4 1.48 1.63 3.55 3.4 4.14 3.69 1.48.89 3.4.44 4.14-1.03.74-1.48.15-3.4-1.18-4.14zm5.77-6.21c0-2.07-1.78-3.84-3.55-3.84-1.18 0-7.39 1.18-9.31 2.81-.44.3-.59.59-.59 1.03 0 .3.15.74.59 1.03 1.92 1.63 8.13 2.81 9.31 2.81 1.77 0 3.55-1.77 3.55-3.84M8.57 45.07c.59-.29 2.66-2.07 4.28-3.69 1.18-1.33 1.98-2.53 1.54-3.27-.27-.45-.85-.49-1.54-.43-2.51.15-6.35 1.77-7.24 2.22-1.33.74-1.92 2.66-1.18 4.14.89 1.48 2.81 1.92 4.14 1.03M5.62 27.49c.89.44 4.73 2.07 7.24 2.22.74.15 1.23 0 1.62-.44.45-.59-.44-1.92-1.62-3.25-1.63-1.62-3.7-3.4-4.28-3.69-1.33-.89-3.25-.44-4.14 1.03-.74 1.48-.15 3.4 1.18 4.14zm35.31 19.8c.3-.44.74-.89 1.48-1.18.82-.17 1.28-.01 1.79.39.47.44.87.94 1.17 1.53.74 1.33.74 1.63 1.18 2.51.29.74 1.77.89 2.21.3.98-1.17.59-2.22.15-4.14l-.15-.44c-1.03-3.25-3.1-5.76-5.46-6.65-.89-.44-2.59-.4-3.4 0-1.33.59-2.37 1.77-2.96 3.55-1.63 4.73-.15 15.52 1.03 20.69.59 2.07 1.33 4.29 1.92 6.21.89 2.22 1.77 4.29 2.51 5.62-.74.59-1.62 1.18-2.51 1.77a16.4 16.4 0 0 1-7.98 2.51V44.2c0-5.17 3.4-9.01 7.98-10.34 1.11-.39 3.4-.89 3.4-.89l1.92-.44-1.92-.44s-2.76-.66-3.4-.89c-4.29-1.33-6.95-4.14-7.98-8.57l-1.18-4.58-1.18 4.58c-1.18 4.43-3.84 7.24-8.13 8.57-.44.1-3.25.89-3.25.89l-1.92.44 1.92.44s3.1.89 3.25.89c4.58 1.33 8.13 5.17 8.13 10.34v35.76c-2.96-.15-5.76-1.03-8.13-2.51q-1.335-.885-2.22-1.77c.44-1.33 1.33-3.4 2.22-5.62.74-1.92 1.33-4.14 1.92-6.21 1.33-5.17 2.66-15.96 1.03-20.69-.41-1.24-1.24-2.4-2.22-3.14-.75-.57-1.72-.85-2.66-.77-.44.04-.89.15-1.33.37-2.22.89-4.43 3.4-5.32 6.65l-.15.44c-.59 1.92-.65 3.5 0 4.14s1.94.59 2.37-.3c.44-.89.44-1.18 1.03-2.51.52-1.51 1.77-1.89 2.07-1.92 1.37-.15 2.08.55 2.36 1.18.44 1.18.74 2.66.89 4.28.15 1.48.15 3.1 0 4.73-.3 5.47-1.77 11.67-3.25 16.25-.59 1.77-1.33 3.4-1.92 4.43.59.59 3.99 3.25 5.17 3.84 2.81 1.33 5.91 2.07 9.31 2.07s6.36-.74 9.16-2.07c1.18-.59 4.88-3.25 5.47-3.84-.74-1.04-1.33-2.66-2.07-4.43-1.63-4.58-2.96-10.79-3.4-16.11 0-1.77-.15-3.4 0-4.88.15-1.63.44-3.1 1.03-4.28zM29.8 35.93c-.96-.26-1.79-.94-2.23-1.83-1.37-2.8 1.21-5.73 4-5.03 1.2.3 2.14 1.3 2.44 2.5.66 2.61-1.53 5.08-4.22 4.36z"/></g><defs><clipPath id="a"><path fill="#fff" d="M0 0h61.62v82.9H0z"/></clipPath></defs></svg>