<svg xmlns="http://www.w3.org/2000/svg" width="199" height="43" fill="none" viewBox="0 0 199 43"><g fill="#cfa648" clip-path="url(#a)"><path d="M173.8 25.7h-59.72v.18h59.72zm-87.77 0H26.3v.18h59.72zm30.94-17.82c.13 0 .38.02.5.04.47.1.59.32.62.8.03.45.03.84.03 3.02v2.45c0 1.34 0 2.44-.08 3.03-.05.4-.12.72-.41.77q-.22.05-.44.06-.12.01-.11.08 0 .12.23.11l.82-.02.6-.01c.83 0 1.78.08 3.86.08.76 0 .8-.06.91-.37.12-.4.22-1.25.22-1.4q0-.21-.09-.2-.11 0-.13.17c-.04.27-.18.62-.37.84-.35.4-.98.42-1.75.42-1.12 0-1.5-.1-1.73-.32-.26-.26-.32-1.15-.32-3.2v-2.48c0-2.18 0-2.57.03-3.02.03-.49.15-.72.57-.8l.47-.04q.1 0 .12-.08 0-.12-.24-.11c-.43 0-1.48.04-1.55.04s-.99-.04-1.64-.04q-.23 0-.23.1.02.1.11.1zm13.64 10.56a5.57 5.57 0 0 0 5.76-5.71c0-3.13-2.43-5.24-5.68-5.24a5.5 5.5 0 0 0-5.68 5.46c0 2.52 1.64 5.5 5.6 5.5zm-.01-10.47c2.28 0 4.38 1.8 4.38 5.15 0 4.06-2.68 4.78-3.98 4.78-2.6 0-4.62-2.09-4.62-5.34 0-3.06 1.8-4.6 4.22-4.6m8.12-.08c.13 0 .38.02.5.04.47.1.56.31.6.64.03.24.04.83.04 3.17v2.46c0 1.7-.03 2.83-.1 3.2-.09.4-.16.53-.39.6-.13.04-.3.05-.43.05q-.13.02-.12.09 0 .11.24.11c.43 0 1.34-.04 1.41-.04.12 0 1.59.08 1.92.08 2.47 0 3.68-1.55 3.68-3.04 0-1.64-1.43-2.63-2.5-2.94.68-.69 1.36-1.37 1.36-2.52 0-.7-.52-2.1-2.88-2.1-.67 0-1.24.05-1.58.05-.07 0-.98-.04-1.63-.04q-.23 0-.23.1.01.1.12.1m2.3.42q-.01-.12.17-.16c.23-.05.53-.07.7-.07 1.4 0 1.94 1.25 1.94 2.4 0 .58-.22 1.08-.52 1.42s-.51.36-1.31.36c-.54 0-.8-.04-.89-.06q-.1-.03-.1-.15zm0 4.25c0-.1.01-.12.86-.12.52 0 .99.06 1.55.42 1.1.74 1.4 1.99 1.4 2.82 0 1.58-1.26 1.98-2.04 1.98a4 4 0 0 1-1.27-.2c-.45-.22-.5-.47-.5-1.52zm12.7 5.88a5.57 5.57 0 0 0 5.76-5.71c0-3.13-2.43-5.24-5.68-5.24a5.5 5.5 0 0 0-5.68 5.46c0 2.52 1.64 5.5 5.6 5.5zm-.02-10.47c2.28 0 4.4 1.8 4.4 5.15 0 4.06-2.7 4.78-4 4.78-2.6 0-4.6-2.09-4.6-5.34 0-3.06 1.8-4.6 4.2-4.6m8.13-.08c.13 0 .38.02.49.04.48.1.59.32.62.8.03.45.03.84.03 3.02v2.45c0 1.34 0 2.44-.07 3.03-.06.4-.14.72-.42.77q-.21.05-.44.06-.12.01-.11.08 0 .12.23.11c.44 0 1.34-.04 1.36-.04.07 0 .98.04 1.78.04q.23 0 .22-.1.01-.09-.1-.1c-.14 0-.46-.02-.66-.05-.43-.05-.52-.36-.56-.77-.08-.58-.08-1.68-.08-3.03v-.33q0-.1.1-.11l1.78.03q.12 0 .19.08c.28.37.96 1.3 1.57 2.07.82 1.05 1.32 1.73 1.95 2.05.37.2.73.27 1.54.27h1.03c.26 0 .34-.03.34-.1q-.01-.09-.13-.1l-.56-.03a3 3 0 0 1-1.76-1c-.84-.87-1.82-2.11-3-3.58 1.3-1.16 1.74-2.2 1.74-3.23a2.4 2.4 0 0 0-1-1.9 4.6 4.6 0 0 0-2.63-.6l-1.71.03c-.07 0-.98-.04-1.63-.04q-.23 0-.23.11.02.09.12.09zm2.3.5q0-.12.11-.16c.14-.05.53-.09.97-.09 1.54 0 2.5 1.05 2.5 2.8 0 1.06-.38 1.8-.89 2.14a2 2 0 0 1-1.08.27c-.63 0-1.3-.1-1.51-.22q-.11-.06-.1-.17zm16.59-.79-.4.07q-.34.04-1.03.06h-5.41c-.17 0-.72-.02-1.14-.06-.4-.03-.54-.17-.64-.17-.05 0-.11.18-.14.26-.03.12-.32 1.32-.32 1.45q0 .13.07.13.08.01.15-.14c.04-.1.09-.2.24-.44.24-.33.58-.43 1.48-.44l2.13-.03v5.9c0 1.34 0 2.44-.07 3.03-.06.4-.13.72-.42.77q-.22.05-.43.06-.12.01-.11.08 0 .12.23.11c.43 0 1.34-.04 1.41-.04s.98.04 1.78.04q.22 0 .22-.1.01-.09-.1-.1c-.14 0-.46-.02-.66-.05-.43-.05-.52-.36-.56-.77-.07-.58-.07-1.68-.07-3.03v-5.9l1.81.03c1.4.02 1.72.34 1.78.77l.02.15c.01.2.04.24.11.24q.1 0 .1-.19c0-.15.05-1.11.05-1.53 0-.08 0-.17-.07-.17m10.99 10.46q-.24.02-.58-.08c-.3-.08-.72-.3-1.25-1.55-.87-2.12-3.14-7.89-3.36-8.41-.17-.44-.23-.5-.31-.5s-.15.08-.32.54l-3.28 8.67c-.26.7-.54 1.23-1.2 1.3l-.43.04q-.12 0-.13.08 0 .12.28.11c.67 0 1.47-.04 1.63-.04s.78.04 1.13.04q.2.01.21-.1t-.14-.1h-.15c-.24 0-.55-.12-.55-.4q.01-.39.2-.93l.87-2.47q.04-.1.15-.11h3.1q.1 0 .13.08l1.34 3.44.03.18c0 .12-.09.2-.11.2q-.09 0-.1.1c0 .08.15.08.43.09 1 .03 2.05.03 2.26.03.16 0 .3-.03.3-.11q0-.1-.15-.09m-4.32-4.42h-2.76q-.07 0-.04-.1l1.27-3.76q.05-.16.1-.16.07-.01.12.16l1.37 3.77q.03.09-.06.1m8.83-1.39-.4-.3c-1.36-1.08-1.76-1.56-1.76-2.35 0-1.02.78-1.62 1.77-1.62 1.33 0 1.72.59 1.8.74.1.16.18.53.2.7q0 .17.11.18t.1-.32c0-.94.06-1.4.06-1.47q.02-.1-.15-.1c-.1 0-.23-.02-.5-.07a6 6 0 0 0-1.34-.14c-1.84 0-3 1.01-3 2.5 0 .96.35 1.82 1.88 3.04l.65.51c1.25 1 1.66 1.56 1.66 2.52 0 .9-.68 1.86-2.06 1.86-.97 0-1.92-.4-2.14-1.43q-.05-.32-.04-.52.01-.15-.1-.15t-.12.22c-.01.23-.07.79-.07 1.49 0 .37.02.43.22.53a4.5 4.5 0 0 0 1.93.37c.78 0 1.56-.16 2.18-.58 1-.69 1.22-1.75 1.22-2.32 0-1.12-.4-1.99-2.1-3.28M79.45 18.34c.88 0 1.92-.1 2.47-.31.25-.11.28-.14.35-.4.14-.47.3-1.66.3-1.76s-.02-.2-.09-.2c-.08 0-.1.05-.14.2-.03.25-.22.85-.5 1.15-.55.57-1.36.69-2.39.69a4.95 4.95 0 0 1-4.95-5.02c0-2.43.86-4.58 4.39-4.58 1.71 0 3.32.57 3.32 2.18q-.02.29.1.28c.11 0 .14-.2.14-.86 0-.8.1-1.45.1-1.6 0-.09-.03-.15-.18-.15-.52 0-1.76-.38-3.39-.38-4.36 0-5.71 3.02-5.71 5.22 0 3.16 2 5.54 6.18 5.54m-16.77-.19c.64 0 1.4-.04 1.55-.04.14 0 .74.04 1.07.04q.19 0 .2-.1 0-.1-.13-.1h-.14c-.23 0-.52-.11-.52-.39q0-.38.19-.92l.82-2.42q.04-.12.14-.11h2.95q.1 0 .12.08l1.28 3.37c.02.05.02.14.02.18 0 .13-.08.2-.1.2q-.09 0-.1.09c0 .08.14.08.41.1.94.02 1.95.02 2.15.02.15 0 .27-.03.27-.1q0-.11-.13-.1a2 2 0 0 1-.56-.07c-.28-.09-.68-.3-1.17-1.53-.84-2.08-3-7.75-3.2-8.27-.17-.42-.22-.5-.3-.5s-.14.09-.3.54l-3.12 8.52c-.25.68-.52 1.2-1.15 1.29l-.4.02q-.11 0-.12.09 0 .11.26.1m3.3-4.64 1.2-3.7q.05-.15.1-.15t.1.15l1.3 3.7q.04.1-.05.1H66q-.07 0-.04-.1m-55.64 4.46q-.22 0-.55-.08c-.29-.09-.68-.31-1.18-1.53-.83-2.08-2.99-7.75-3.2-8.27-.16-.42-.21-.5-.3-.5s-.13.09-.3.54l-3.11 8.52c-.25.68-.52 1.2-1.16 1.29l-.4.03q-.11 0-.12.08 0 .11.26.11c.65 0 1.4-.04 1.55-.04s.74.04 1.07.04q.2.01.2-.11 0-.08-.13-.08h-.13c-.24 0-.53-.13-.53-.4a3 3 0 0 1 .2-.92l1.07-3.13 1.2-3.7q.1-.3.2 0l1.3 3.7.25.67 1.28 3.38c.08.22 0 .34-.08.37q-.1.01-.1.1c0 .08.15.08.41.1.95.02 1.95.02 2.16.02.14 0 .27-.03.27-.11q-.01-.1-.14-.09zm5.94-10.37a5.3 5.3 0 0 0-5.41 5.36c0 2.47 1.56 5.4 5.32 5.4 3.3 0 5.48-2.55 5.48-5.62s-2.3-5.15-5.4-5.15m.29 10.23c-2.47 0-4.39-2.06-4.39-5.26 0-3 1.71-4.51 4-4.51 2.17 0 4.17 1.77 4.17 5.06 0 3.99-2.55 4.7-3.78 4.7m14.33-2.6c0-2.52-2.42-2.94-3.87-2.94-.51 0-.76-.04-.84-.05q-.1-.03-.1-.15V8.44q.03-.12.12-.12l2.5.02c.54.01.86.26.93.44.09.18.13.41.13.52q0 .15.1.16c.06 0 .1-.08.1-.15.03-.16.06-.76.07-.9.05-.39.11-.55.11-.65q0-.11-.08-.12-.08.02-.2.08-.2.04-.6.06l-3.56.04h-.14c-.07 0-.93-.04-1.55-.04q-.22 0-.22.1.02.09.1.09c.13 0 .36.01.47.04.46.1.57.31.6.79.02.43.02.82.02 2.96v2.4c0 1.32 0 2.4-.07 2.98-.05.4-.12.7-.4.75-.12.04-.29.06-.41.06q-.11 0-.11.09 0 .11.22.1l1.35-.03c.1 0 1.5.08 1.82.08 2.34 0 3.5-1.53 3.5-2.99m-4.8 1.28v-3.75q0-.1.08-.1c.85 0 1.42-.13 2.2.4a3.3 3.3 0 0 1 1.34 2.77c0 1.55-1.2 1.95-1.94 1.95a3 3 0 0 1-1.2-.2c-.43-.21-.43-.4-.47-1.07m12.08 1.86c3.3 0 5.47-2.54 5.47-5.61s-2.3-5.15-5.39-5.15a5.3 5.3 0 0 0-5.4 5.37c0 2.46 1.56 5.39 5.32 5.39m-.01-10.29c2.16 0 4.16 1.77 4.16 5.06 0 4-2.55 4.7-3.78 4.7-2.47 0-4.39-2.05-4.39-5.25 0-3 1.72-4.51 4-4.51m7.73-.08c.12 0 .36.01.46.04.46.1.57.31.6.79.02.43.02.82.02 2.96v2.4c0 1.32 0 2.4-.07 2.98-.05.4-.12.7-.4.75-.12.04-.29.06-.4.06q-.13 0-.12.09 0 .11.22.1l1.32-.03c.07 0 .93.04 1.69.04q.22 0 .21-.11.01-.08-.1-.09c-.13 0-.43-.02-.62-.06-.41-.05-.5-.34-.54-.75-.07-.57-.07-1.66-.07-2.97V8.53q0-.2.11-.26c.13-.06.36-.09.6-.09.3 0 1.15-.05 1.87.7.73.73.77 1.65.77 2.1 0 1.27-1.04 2.24-2.37 2.24-.29 0-.38.01-.38.12 0 .07.09.1.15.1l.3.01c1.94 0 3.37-1.31 3.37-3.26 0-.73-.39-1.35-.69-1.63-.22-.2-.83-.79-2.55-.79-.63 0-1.43.05-1.73.05-.1 0-.93-.05-1.55-.05q-.22 0-.22.11.02.09.11.09m7.87 1.43q.08.01.14-.14c.04-.1.08-.2.23-.42.22-.33.55-.43 1.4-.44l2.03-.03v5.8c0 1.32 0 2.4-.07 2.98-.06.4-.13.7-.4.75q-.21.05-.41.06-.11.01-.1.08 0 .11.2.11c.42 0 1.29-.04 1.35-.04s.93.04 1.69.04q.22 0 .22-.11 0-.07-.11-.08l-.61-.06c-.42-.05-.5-.35-.54-.75-.07-.58-.07-1.66-.07-2.98v-5.8l1.73.03c1.32.02 1.63.34 1.68.75l.02.15c.02.2.04.24.11.24q.1 0 .1-.18c0-.15.04-1.1.04-1.5 0-.09 0-.18-.07-.18-.11 0-.48.14-1.36.14h-5.14c-.17 0-.7-.02-1.09-.06-.37-.03-.5-.17-.6-.17-.06 0-.11.18-.14.26-.03.11-.3 1.29-.3 1.43q0 .12.07.12m.01 24.17q.96.02 1.54.31l.24-.8a4 4 0 0 0-1.82-.34 3.8 3.8 0 0 0-3.98 4c0 2.4 1.62 3.88 3.77 3.88.93 0 1.65-.2 2.02-.37l-.2-.79c-.4.2-1.02.32-1.62.32-1.85 0-2.93-1.2-2.93-3.07 0-2 1.19-3.15 2.98-3.15m3.96-1.11h-1v8.05h1zm5.53 4.68c0-1.1-.41-2.24-2.09-2.24-.69 0-1.35.2-1.8.49l.23.65c.39-.25.92-.4 1.43-.4 1.12 0 1.24.8 1.24 1.26V37c-2.11 0-3.3.72-3.3 2.04 0 .8.57 1.58 1.68 1.58.78 0 1.37-.39 1.68-.82h.03l.08.7h.9a8 8 0 0 1-.09-1.32zm-.97 1.52q0 .16-.05.32c-.16.46-.61.91-1.33.91-.5 0-.94-.3-.94-.95 0-1.06 1.24-1.26 2.32-1.23zm4.34-1.33c-.71-.28-1.04-.48-1.04-.93 0-.4.33-.75.92-.75.51 0 .9.18 1.12.32l.25-.73c-.3-.17-.8-.34-1.35-.34-1.17 0-1.89.73-1.89 1.61q-.01 1 1.45 1.55c.74.27 1.02.54 1.02 1.01 0 .48-.34.82-1.07.82-.5 0-1.02-.2-1.3-.4l-.26.76c.39.22.94.39 1.54.39 1.3 0 2.05-.7 2.05-1.66 0-.81-.48-1.29-1.44-1.65m4.49 0c-.72-.28-1.04-.48-1.04-.93 0-.4.32-.75.92-.75.5 0 .9.18 1.11.32l.26-.73c-.3-.17-.8-.34-1.35-.34-1.18 0-1.9.73-1.9 1.61q-.01 1 1.45 1.55c.74.27 1.02.54 1.02 1.01 0 .48-.34.82-1.06.82-.5 0-1.02-.2-1.31-.4l-.25.76c.38.22.94.39 1.54.39 1.3 0 2.05-.7 2.05-1.66 0-.81-.49-1.29-1.44-1.65m3.71-2.3h-1v5.48h1zm-.49-2.17a.6.6 0 0 0-.63.62c0 .36.25.62.6.62.4 0 .65-.28.63-.62 0-.35-.23-.62-.6-.62M79 35.7c.54 0 .9.12 1.15.25l.22-.77a3.4 3.4 0 0 0-1.38-.28c-1.79 0-2.94 1.22-2.94 2.91s1.08 2.81 2.73 2.81c.74 0 1.31-.2 1.57-.33l-.17-.75a3 3 0 0 1-1.22.28c-1.09 0-1.9-.78-1.9-2.05 0-1.15.68-2.07 1.93-2.07m9.49 2.2c0 1.49-.52 1.88-1.4 1.88q-.5-.01-.83-.14l-.14.8c.25.1.69.19 1.05.19 1.31 0 2.31-.63 2.31-2.66v-5.1h-.98zm4.77-3.01c-1.6 0-2.57 1.3-2.57 2.96 0 1.65 1.01 2.77 2.7 2.77.87 0 1.47-.2 1.82-.35l-.17-.71c-.37.16-.8.28-1.52.28-1 0-1.85-.55-1.88-1.9h3.86q.02-.15.03-.47c0-1-.47-2.58-2.27-2.58m-1.6 2.33c.07-.69.52-1.62 1.52-1.62 1.13 0 1.4.99 1.39 1.62zm10.68.55q-.28.95-.42 1.77h-.04q-.18-.81-.49-1.78l-.85-2.74h-.83l-.9 2.78q-.29.91-.48 1.75h-.04q-.16-.84-.4-1.75l-.73-2.78h-1.02l1.65 5.48h.9l.9-2.6c.18-.6.35-1.16.49-1.82h.02c.13.65.3 1.19.49 1.8l.83 2.62h.9l1.77-5.48h-.98l-.78 2.75m4.83-2.88c-1.6 0-2.57 1.3-2.57 2.96 0 1.65 1 2.77 2.7 2.77.87 0 1.47-.2 1.82-.35l-.17-.71c-.37.16-.8.28-1.51.28-1 0-1.86-.55-1.89-1.9h3.86l.03-.47c0-1-.48-2.58-2.27-2.58m-1.6 2.33c.07-.69.51-1.62 1.52-1.62 1.12 0 1.4.99 1.38 1.62zm6.1-4.77h-1v8.05h1zm2.58 3.65h-.05l-.03-1.08h-.87q.04.74.04 1.7v3.78h.99v-2.93q0-.26.05-.46c.13-.75.63-1.28 1.33-1.28q.2 0 .34.03v-.94l-.28-.03c-.67 0-1.27.47-1.52 1.2m5.37 2.14c-.14.4-.25.82-.35 1.15h-.02c-.1-.33-.23-.76-.36-1.12l-1.2-3.24h-1.09l2.03 5.05q.07.18.07.26a3 3 0 0 1-.92 1.35c-.3.24-.62.4-.87.48l.25.84c.25-.05.74-.21 1.22-.65.68-.59 1.17-1.55 1.89-3.43l1.49-3.9h-1.05zm11.67-2.17h-3.7v-3.2h-.98v7.64h.98v-3.58h3.7v3.58h1v-7.64h-1zm4.99-1.17c-1.52 0-2.72 1.08-2.72 2.9 0 1.74 1.15 2.83 2.63 2.83 1.32 0 2.73-.88 2.73-2.91 0-1.68-1.07-2.82-2.64-2.82m-.04 4.98c-.97 0-1.67-.9-1.67-2.1 0-1.04.5-2.13 1.69-2.13 1.18 0 1.64 1.18 1.64 2.1 0 1.24-.71 2.13-1.66 2.13m8.53-4.85h-1v3.36q0 .28-.1.51c-.17.44-.64.9-1.3.9-.91 0-1.23-.7-1.23-1.74V35h-1v3.2c0 1.93 1.03 2.4 1.9 2.4.97 0 1.55-.57 1.81-1.01h.02l.06.9h.88q-.04-.65-.04-1.5v-4zm3.42 2.3c-.71-.28-1.05-.48-1.05-.93 0-.4.33-.75.92-.75.51 0 .9.18 1.12.32l.25-.73c-.3-.17-.8-.34-1.35-.34-1.18 0-1.89.73-1.89 1.61q-.01 1 1.45 1.55c.74.27 1.02.54 1.02 1.01 0 .48-.34.82-1.06.82-.5 0-1.02-.2-1.32-.4l-.25.76c.39.22.94.39 1.55.39 1.3 0 2.05-.7 2.05-1.66 0-.81-.49-1.29-1.44-1.65m4.89-2.43c-1.6 0-2.57 1.3-2.57 2.96 0 1.65 1 2.77 2.7 2.77.87 0 1.47-.2 1.82-.35l-.17-.71c-.37.16-.8.28-1.52.28-1 0-1.85-.55-1.88-1.9h3.85q.02-.15.03-.47c0-1-.47-2.58-2.26-2.58m-1.6 2.33c.07-.69.52-1.62 1.52-1.62 1.13 0 1.4.99 1.39 1.62zM96.8 4.17c.62.7 1.42 1.43 1.74 1.22.58-.32-.43-2.9-.64-3.28a1.1 1.1 0 0 0-1.47-.43v.01c-.48.27-.64 1-.37 1.48.05.16.37.58.74 1m3.32.8c.8 0 1.37-3.17 1.37-3.7 0-.63-.63-1.27-1.37-1.27-.8 0-1.38.63-1.38 1.27 0 .53.58 3.7 1.38 3.7m6.45 4.33c-.42.48-.8.96-.63 1.17q.15.22.63.15a8 8 0 0 0 2.54-.79c.47-.26.68-.95.42-1.48s-.95-.69-1.48-.37c-.22.1-.96.74-1.48 1.32m-3.17-5.13c.37-.42.68-.84.8-1 .26-.48.15-1.22-.38-1.48-.1-.1-.26-.1-.42-.16-.42-.05-.85.21-1.06.58-.27.37-1.22 2.96-.69 3.28.38.2 1.16-.53 1.75-1.22m-10 3.81.33.27q.95.8 1.9.95c.37.05.8.05 1.16-.11.22-.09.32-.16.48-.32.74-.8.53-2.27-.48-3.54-.1-.1-.21-.26-.32-.37a4 4 0 0 0-.84-.8 1.4 1.4 0 0 0-.8-.26c-.26 0-.47.48-.31.74.26.37.84.9 1.1 1.43a.8.8 0 0 1 0 .84s-.05.11-.1.16c-.59.53-1.27.06-1.8-.42l-.49-.42c-.21-.19-.54-.21-.75-.03q-.13.1-.14.24c-.05.58.53 1.1 1.06 1.63zm10-2.75c-1 1.22-1.22 2.75-.42 3.55q.29.3.68.4.46.1.95.02a4 4 0 0 0 1.95-.95c.3-.24 1.43-1.32 1.38-1.9a.4.4 0 0 0-.14-.24.6.6 0 0 0-.8.04l-.44.4c-.58.48-1.27.96-1.8.43a.8.8 0 0 1-.22-.74q.02-.14.07-.27c.27-.53.85-1.06 1.11-1.43.16-.26 0-.72-.32-.74-.26-.02-.53.11-.8.27a6 6 0 0 0-1.2 1.16m-9.46 6.82c0-.16-.11-.26-.21-.37-.75-.58-2.96-1-3.39-1-.63 0-1.22.63-1.22 1.37s.58 1.38 1.22 1.38c.42 0 2.64-.43 3.39-1 .1-.11.2-.27.2-.38m15.17 2.22a9 9 0 0 0-2.53-.8q-.48-.06-.63.12c-.16.26.21.74.63 1.21a9 9 0 0 0 1.48 1.32c.53.32 1.22.16 1.48-.37.27-.52.06-1.21-.42-1.48m2.06-2.22c0-.74-.64-1.37-1.27-1.37-.42 0-2.65.42-3.33 1q-.23.15-.21.37c0 .1.05.27.2.37.7.58 2.92 1 3.34 1 .63 0 1.27-.63 1.27-1.37M92.2 16.12c.2-.1.94-.74 1.52-1.32.42-.47.71-.9.55-1.17-.1-.16-.3-.17-.55-.15-.9.05-2.27.63-2.59.8-.47.26-.68.95-.42 1.47.32.53 1 .7 1.48.37m-1.05-6.29c.31.16 1.69.74 2.59.8q.38.08.57-.16c.17-.21-.15-.69-.57-1.16a11 11 0 0 0-1.54-1.32c-.47-.32-1.16-.16-1.48.37-.26.53-.05 1.21.43 1.48m12.63 7.08q.14-.25.53-.43a.7.7 0 0 1 .64.14q.25.24.42.55c.26.48.26.59.42.9.1.26.63.32.79.1.35-.41.2-.79.05-1.47l-.05-.16c-.37-1.16-1.11-2.06-1.95-2.38a1.7 1.7 0 0 0-1.22 0 2 2 0 0 0-1.06 1.27c-.58 1.7-.05 5.55.37 7.4.2.74.47 1.54.69 2.22.31.8.63 1.54.9 2.01q-.42.32-.9.64-1.27.8-2.86.9V15.8a3.8 3.8 0 0 1 2.85-3.7c.4-.14 1.22-.32 1.22-.32l.69-.15-.69-.16s-.99-.24-1.22-.32a3.9 3.9 0 0 1-2.85-3.06l-.42-1.64-.42 1.64a4.1 4.1 0 0 1-2.91 3.06l-1.17.32-.68.16.69.15s1.1.32 1.16.32a3.85 3.85 0 0 1 2.9 3.7v12.8a6 6 0 0 1-2.9-.9 5 5 0 0 1-.8-.64c.16-.47.48-1.21.8-2 .26-.7.47-1.49.68-2.23.48-1.85.96-5.7.37-7.4a2.4 2.4 0 0 0-.8-1.12 1.4 1.4 0 0 0-1.42-.15 3.6 3.6 0 0 0-1.9 2.38l-.06.16c-.2.69-.23 1.25 0 1.48s.7.21.85-.1c.16-.32.16-.43.37-.9a1 1 0 0 1 .74-.7c.5-.04.75.2.85.43q.23.64.31 1.53.09.8 0 1.7c-.1 1.95-.63 4.17-1.16 5.8a9 9 0 0 1-.69 1.6c.22.2 1.43 1.15 1.85 1.37a7.7 7.7 0 0 0 6.61 0c.42-.22 1.75-1.17 1.96-1.38-.27-.37-.48-.95-.74-1.58a25 25 0 0 1-1.22-5.77c0-.63-.05-1.21 0-1.74q.06-.89.37-1.53m-3.98-4.07q-.54-.15-.8-.65c-.5-1 .43-2.05 1.43-1.8.43.1.76.46.87.9.24.93-.55 1.81-1.5 1.55"/></g><defs><clipPath id="a"><path fill="#fff" d="M0 0h198.34v43H0z"/></clipPath></defs></svg>