<svg xmlns="http://www.w3.org/2000/svg" width="60" height="80" xmlns:xlink="http://www.w3.org/1999/xlink" viewBox="0 0 60 80"><defs><clipPath id="b"><rect width="60" height="80"/></clipPath></defs><g clip-path="url(#b)"><path d="m20.87,11.26c1.72,1.85,3.89,3.85,4.75,3.28,1.59-.86-1.15-7.85-1.72-8.84-.26-.44-.63-.81-1.06-1.08-.88-.55-2.01-.53-2.93-.08l-.03.02c-1.3.71-1.72,2.71-1,4,.15.42,1,1.56,2.02,2.71h-.02Zm9.06,2.14c2.16,0,3.74-8.56,3.74-9.98C33.66,1.72,31.93,0,29.92,0,27.76,0,26.18,1.71,26.18,3.43c0,1.43,1.58,9.98,3.74,9.98m17.56,11.7c-1.15,1.28-2.15,2.57-1.72,3.14.29.42.87.57,1.72.42,2.31-.14,6.18-1.71,6.9-2.14,1.3-.71,1.87-2.57,1.15-4s-2.59-1.85-4.03-.99c-.57.29-2.59,2-4.03,3.56h0Zm-8.63-13.84c1-1.14,1.87-2.29,2.16-2.71.72-1.28.43-3.28-1.01-4-.28-.29-.72-.29-1.15-.42-1.15-.14-2.31.57-2.88,1.56-.72,1-3.31,7.99-1.87,8.84,1.01.57,3.16-1.43,4.75-3.28h0Zm-27.2,10.27c.29.29.87.71.87.71,1.73,1.46,3.46,2.28,5.18,2.57,1,.14,2.16.14,3.16-.29.58-.23.87-.44,1.3-.86,2.02-2.14,1.44-6.13-1.3-9.55-.29-.28-.57-.71-.87-.99-.9-1.02-1.44-1.56-2.3-2.14-.72-.42-1.3-.71-2.16-.71-.72,0-1.3,1.28-.87,2,.72.99,2.3,2.42,3.02,3.85.43.71.43,1.56,0,2.28,0,0-.15.29-.29.42-1.59,1.43-3.46.14-4.89-1.14-.5-.4-.93-.79-1.33-1.14-.58-.5-1.47-.57-2.05-.08-.21.18-.36.41-.36.64-.15,1.57,1.44,2.99,2.88,4.42v.02Zm27.2-7.41c-2.74,3.28-3.31,7.41-1.15,9.55.52.52,1.15.93,1.86,1.09.82.19,1.7.16,2.59.06,1.72-.29,3.59-1.14,5.32-2.57.82-.64,3.89-3.57,3.74-5.13-.09-.31-.16-.45-.38-.63-.63-.5-1.55-.43-2.15.1-.38.34-.83.71-1.21,1.09-1.58,1.28-3.46,2.57-4.89,1.14-.52-.53-.79-1.27-.63-2,.05-.23.12-.46.2-.71.72-1.43,2.3-2.86,3.02-3.85.43-.71.02-1.94-.87-2-.72-.05-1.44.29-2.16.71-1.02.69-2.66,2.24-3.31,3.14h.02Zm-25.75,18.39c0-.42-.29-.71-.57-.99-2.02-1.57-8.05-2.71-9.21-2.71C1.59,28.81,0,30.51,0,32.51s1.58,3.71,3.31,3.71c1.15,0,7.2-1.14,9.21-2.71.29-.28.57-.71.57-.99m41.29,5.99c-.72-.42-4.61-2-6.9-2.14-.87-.14-1.44,0-1.72.29-.43.71.57,2,1.72,3.28,1.44,1.57,3.46,3.28,4.03,3.56,1.44.86,3.31.42,4.03-.99.72-1.43.15-3.28-1.15-4h0Zm5.62-5.99c0-2-1.73-3.71-3.46-3.71-1.15,0-7.2,1.14-9.07,2.71-.43.29-.57.57-.57.99,0,.29.15.71.57.99,1.87,1.57,7.92,2.71,9.07,2.71,1.72,0,3.46-1.71,3.46-3.71m-51.66,10.98c.57-.28,2.59-2,4.17-3.56,1.15-1.28,1.93-2.44,1.5-3.16-.26-.43-.83-.47-1.5-.41-2.44.14-6.18,1.71-7.05,2.14-1.3.71-1.87,2.57-1.15,4,.87,1.43,2.74,1.85,4.03.99m-2.87-16.97c.87.42,4.61,2,7.05,2.14.72.14,1.2,0,1.58-.42.44-.57-.43-1.85-1.58-3.14-1.59-1.56-3.6-3.28-4.17-3.56-1.3-.86-3.16-.42-4.03.99-.72,1.43-.15,3.28,1.15,4h0Zm34.38,19.11c.29-.42.72-.86,1.44-1.14.8-.16,1.25,0,1.74.38.46.42.85.91,1.14,1.48.72,1.28.72,1.57,1.15,2.42.28.71,1.72.86,2.15.29.95-1.13.57-2.14.15-4l-.15-.42c-1-3.14-3.02-5.56-5.32-6.42-.87-.42-2.52-.39-3.31,0-1.3.57-2.31,1.71-2.88,3.43-1.59,4.56-.15,14.98,1,19.97.57,2,1.3,4.14,1.87,5.99.87,2.14,1.72,4.14,2.44,5.42-.72.57-1.58,1.14-2.44,1.71-2.34,1.46-5.01,2.29-7.77,2.42v-34.51c0-4.99,3.31-8.69,7.77-9.98,1.08-.38,3.31-.86,3.31-.86l1.87-.42-1.87-.42s-2.69-.64-3.31-.86c-4.18-1.28-6.77-4-7.77-8.27l-1.15-4.42-1.15,4.42c-1.15,4.28-3.74,6.99-7.92,8.27-.43.1-3.16.86-3.16.86l-1.87.42,1.87.42s3.02.86,3.16.86c4.46,1.28,7.92,4.99,7.92,9.98v34.51c-2.88-.14-5.61-.99-7.92-2.42-.87-.57-1.59-1.14-2.16-1.71.43-1.28,1.3-3.28,2.16-5.42.72-1.85,1.3-4,1.87-5.99,1.3-4.99,2.59-15.4,1-19.97-.4-1.2-1.21-2.32-2.16-3.03-.73-.55-1.67-.82-2.59-.74-.43.04-.87.14-1.3.36-2.16.86-4.31,3.28-5.18,6.42l-.15.42c-.57,1.85-.63,3.38,0,4s1.89.57,2.31-.29c.43-.86.43-1.14,1-2.42.51-1.46,1.72-1.82,2.02-1.85,1.33-.14,2.03.53,2.3,1.14.43,1.14.72,2.57.87,4.13.15,1.43.15,2.99,0,4.56-.29,5.28-1.72,11.26-3.16,15.68-.57,1.71-1.3,3.28-1.87,4.28.57.57,3.89,3.14,5.03,3.71,2.74,1.28,5.75,2,9.07,2s6.19-.71,8.92-2c1.15-.57,4.75-3.14,5.33-3.71-.72-1-1.3-2.57-2.02-4.28-1.59-4.42-2.88-10.41-3.31-15.55,0-1.71-.15-3.28,0-4.71.15-1.57.43-2.99,1-4.13h.02Zm-10.84-10.96c-.93-.25-1.74-.91-2.17-1.77-1.33-2.7,1.18-5.53,3.89-4.85,1.17.29,2.08,1.25,2.38,2.41.64,2.52-1.49,4.9-4.11,4.21h0Z"/></g></svg>