<svg xmlns="http://www.w3.org/2000/svg" xmlns:xlink="http://www.w3.org/1999/xlink" style="display:none"><defs><clipPath id="a"><path fill="#fff" d="M5.5 4h25v28h-25z"/></clipPath></defs><symbol id="arrow-down-md"><path d="M22 32.93L3.84 14.77a.996.996 0 111.41-1.41L22 30.11l16.75-16.75a.996.996 0 111.41 1.41z"/></symbol><symbol id="arrow-down-sm"><path d="M12 16.6L3.65 8.25c-.2-.2-.2-.51 0-.71s.51-.2.71 0l7.65 7.65 7.65-7.65c.2-.2.51-.2.71 0s.2.51 0 .71l-8.35 8.35z"/></symbol><symbol id="arrow-left-lg"><path d="M30.48 44c-.28 0-.56-.12-.75-.36L12.56 22 29.73.36c.33-.41.93-.48 1.34-.15s.48.93.16 1.34L15.01 22l16.22 20.45c.33.41.26 1.02-.16 1.34-.18.14-.38.21-.59.21"/></symbol><symbol id="arrow-right-long"><path d="M21.9 2.3L19.8.1c-.1-.1-.3-.1-.5 0-.1.1-.1.3 0 .5l1.6 1.6H0v.6h20.9l-1.6 1.6c-.1.1-.1.3 0 .5.1.1.3.1.5 0l2.1-2.2c.1-.1.1-.3 0-.4"/></symbol><symbol id="facebook"><path d="M29.05 32H22.4V19.95h3.42l.38-2.68h-3.8V15.2c0-.65 0-2.61 2.28-2.61h1.63V10a20 20 0 00-2.16-.1c-2.98 0-4.43 1.6-4.43 4.89v2.48h-3.68v2.68h3.68V32H6.95A2.95 2.95 0 014 29.05V6.95A2.96 2.96 0 016.95 4h22.1A2.95 2.95 0 0132 6.95v22.1A2.96 2.96 0 0129.05 32m-5.64-1h5.64c1.08 0 1.95-.88 1.95-1.95V6.95C31 5.87 30.12 5 29.05 5H6.95C5.87 5 5 5.88 5 6.95v22.1C5 30.13 5.88 31 6.95 31h11.77V20.95h-3.68v-4.68h3.68v-1.48c0-3.85 1.88-5.89 5.43-5.89 1.5 0 2.3.11 2.7.16l.43.06.02.44v4.03h-2.63c-.85 0-1.28.25-1.28 1.6v1.08h3.95l-.67 4.68h-3.29V31z"/></symbol><symbol id="filter"><path d="M12 18.5c-.28 0-.5-.22-.5-.5v-1.9H4c-.28 0-.5-.22-.5-.5s.22-.5.5-.5h7.5v-1.9c0-.28.22-.5.5-.5s.5.22.5.5v1.9H20c.28 0 .5.22.5.5s-.22.5-.5.5h-7.5V18c0 .28-.22.5-.5.5m4-7.2c-.28 0-.5-.22-.5-.5V8.9H4c-.28 0-.5-.22-.5-.5s.22-.5.5-.5h11.5V6c0-.28.22-.5.5-.5s.5.22.5.5v1.9H20c.28 0 .5.22.5.5s-.22.5-.5.5h-3.5v1.9c0 .28-.22.5-.5.5"/></symbol><symbol id="geolocation"><path d="M17.96 35.97l-.78-.93q-.4-.45-.78-.94l-.59-.74c-.79-.99-1.62-2.02-2.39-3.06a108 108 0 01-2.79-3.99 47 47 0 01-2.74-4.65 28 28 0 01-2.22-5.42q-.17-.67-.3-1.35l-.03-.15q-.31-1.57-.2-2.89A12.7 12.7 0 0115.8.22a13 13 0 0112.26 4.56 12.3 12.3 0 012.82 8.33 16 16 0 01-.77 3.87 32 32 0 01-2.67 5.91l-.08.13q-.6 1.05-1.22 2.08a75 75 0 01-3.82 5.57 89 89 0 01-3.99 4.92l-.39.4zm.02-34.96q-.94 0-2.02.2-1.3.22-2.3.62a11.8 11.8 0 00-7.54 10.1q-.1 1.18.18 2.6l.03.15c.1.43.17.86.3 1.28a27 27 0 002.14 5.23 47 47 0 002.7 4.55c1 1.5 1.84 2.73 2.75 3.96a91 91 0 002.37 3.03l.6.75q.36.46.76.91l.06.07a89 89 0 003.53-4.4c1.43-1.9 2.66-3.7 3.77-5.49q.62-1.02 1.2-2.05l.07-.13a30 30 0 002.58-5.72q.62-1.9.72-3.62a11.4 11.4 0 00-2.6-7.65 12 12 0 00-8.86-4.38zM18 18.77a6.15 6.15 0 01-6.2-6.09A6.14 6.14 0 0118 6.6c3.42 0 6.2 2.73 6.2 6.08a6.16 6.16 0 01-6.2 6.1M18 7.6a5.15 5.15 0 00-5.2 5.08c0 2.8 2.33 5.1 5.2 5.1s5.2-2.29 5.2-5.1A5.14 5.14 0 0018 7.6"/></symbol><symbol id="info"><path d="M12 3.5c-4.69 0-8.5 3.81-8.5 8.5s3.81 8.5 8.5 8.5 8.5-3.81 8.5-8.5-3.81-8.5-8.5-8.5m0 16c-4.14 0-7.5-3.36-7.5-7.5S7.86 4.5 12 4.5s7.5 3.36 7.5 7.5-3.36 7.5-7.5 7.5m-.11-10.27c.19 0 .34-.05.44-.16.11-.11.16-.25.16-.44s-.05-.34-.16-.44-.25-.16-.44-.16-.34.05-.46.16c-.11.11-.17.25-.17.44s.06.34.17.44c.11.11.27.16.46.16m.85 7.1a.5.5 0 01-.26-.29c-.05-.13-.07-.34-.07-.63v-2.7c0-.43 0-.8.01-1.12 0-.32.01-.51.01-.57 0-.03-.01-.05-.04-.07-.03-.03-.05-.04-.07-.04h-.06l-1.86.87s-.03.05-.01.1.05.07.09.07h.01c.26-.13.47-.2.65-.2s.29.08.36.23c.08.15.11.4.11.75v2.68c0 .29-.02.5-.07.63s-.14.23-.27.29c-.12.05-.32.07-.57.07q-.03 0-.03.09c0 .09 0 .09.03.09.23 0 .41 0 .54-.01h1.54c.13 0 .31.01.53.01.03 0 .04-.03.04-.09s-.01-.09-.04-.09c-.26 0-.45-.02-.57-.07"/></symbol><symbol id="instagram"><path d="M23.63 32H12.37A8.4 8.4 0 014 23.63V12.37A8.4 8.4 0 0112.37 4h11.26A8.4 8.4 0 0132 12.37v11.26A8.4 8.4 0 0123.63 32M12.37 5A7.4 7.4 0 005 12.37v11.26A7.4 7.4 0 0012.37 31h11.26A7.4 7.4 0 0031 23.63V12.37A7.4 7.4 0 0023.63 5zM18 25.25a7.26 7.26 0 110-14.52 7.26 7.26 0 010 14.52m0-13.5a6.26 6.26 0 100 12.52 6.26 6.26 0 000-12.52M18 23a5 5 0 01-5-5 4.97 4.97 0 015-4.99 4.97 4.97 0 013.53 8.52A5 5 0 0118 23m0-9a3.97 3.97 0 00-4 4 4 4 0 104-4m7.88-2.25a1.62 1.62 0 110-3.24 1.62 1.62 0 010 3.24m0-2.25a.6.6 0 00-.62.62c0 .34.28.62.62.62s.62-.28.62-.62a.6.6 0 00-.62-.62"/></symbol><symbol id="like"><path d="M11.97 20.5a.47.47 0 01-.35-.15l-7.98-7.97c-.98-.98-1.51-2.27-1.51-3.65s.54-2.68 1.51-3.66c.98-.97 2.28-1.51 3.66-1.51s2.68.54 3.65 1.51l1.01 1.01 1.01-1.01a5.1 5.1 0 011.67-1.15c.65-.27 1.32-.42 2.01-.42s1.36.12 2 .38 1.21.64 1.7 1.13.87 1.06 1.13 1.7.39 1.31.38 2c0 .69-.15 1.36-.42 2-.27.63-.66 1.2-1.16 1.68l-7.96 7.97a.5.5 0 01-.35.15zM4.35 5.78c-.79.79-1.22 1.83-1.22 2.95s.43 2.16 1.22 2.95l7.62 7.62 7.62-7.62c.41-.39.72-.85.94-1.36s.33-1.05.34-1.61-.1-1.1-.31-1.61-.52-.98-.91-1.37-.85-.7-1.37-.91c-.51-.21-1.08-.31-1.61-.31-.56 0-1.1.12-1.61.34s-.97.53-1.35.93l-1.37 1.37c-.2.2-.51.2-.71 0l-1.37-1.37c-.79-.79-1.83-1.22-2.95-1.22s-2.16.43-2.95 1.22z"/></symbol><symbol id="link"><path d="M7.14 10.14c.2-.2.51-.2.71 0s.2.51 0 .71L5.6 13.1a3.754 3.754 0 000 5.3 3.754 3.754 0 005.3 0l2.25-2.25c.2-.21.51-.21.71 0 .2.2.2.51 0 .71l-2.25 2.25c-.93.93-2.14 1.39-3.36 1.39s-2.43-.46-3.36-1.39a4.75 4.75 0 010-6.71l2.25-2.25zm7.5-1.5c.2-.2.51-.2.71 0s.2.51 0 .71l-6.01 6.01a.485.485 0 01-.7 0c-.2-.2-.2-.51 0-.71l6.01-6.01zM12.4 4.89a4.75 4.75 0 016.71 0c1.85 1.86 1.85 4.87 0 6.72l-2.25 2.25a.485.485 0 01-.7 0c-.2-.2-.2-.51 0-.71l2.25-2.25c.71-.71 1.1-1.65 1.1-2.65s-.39-1.94-1.1-2.65a3.754 3.754 0 00-5.3 0l-2.25 2.25c-.2.2-.51.2-.71 0s-.2-.51 0-.71z"/></symbol><symbol id="linkedin"><path d="M29.44 32H6.58l.02-.12a3.5 3.5 0 01-2.49-2.48l-.12.02V6.59l.12.02a3.5 3.5 0 012.47-2.5L6.59 4h22.85l-.02.13a3.5 3.5 0 012.48 2.49l.1-.03v22.85l-.11-.02a3.5 3.5 0 01-2.48 2.48l.02.12zm-22.08-.98h21.27l.05-.04.25.02A2.5 2.5 0 0031 28.9l-.02-.2.05-.05V7.37l-.05-.05.02-.21a2.5 2.5 0 00-2.11-2.12l-.2.01-.05-.04H7.39L7.34 5h-.21A2.5 2.5 0 005 7.1l.02.18-.06.07v21.27l.06.05-.03.2A2.5 2.5 0 007.12 31l.19-.03zm20.4-2.77h-4.49v-7.4q-.03-2.26-1.57-2.36-.92-.03-1.46.46c-.54.5-.66 1.32-.66 1.91v7.4h-4.81l-.03-.5V14.27l.5-.01h4.33v.9a5.3 5.3 0 015.04-1.1c2.28.6 3.63 2.61 3.64 5.38v8.46l-.27.34h-.25zm-3.52-.96h3.07v-7.84c-.01-1.11-.3-3.76-2.92-4.45-1.89-.5-3.7.09-4.73 1.54q-.11.17-.23.29l-.82.8v-2.4h-2.9v12.06h2.9v-6.43q.03-1.71.96-2.62a2.8 2.8 0 012.18-.71c1.57.07 2.47 1.29 2.48 3.31v6.43zm-11.1.96H8.15v-14h5zm-4.02-.96h3.06V15.23H9.12zm1.5-13.77a2.8 2.8 0 01-2.45-1.4 2.9 2.9 0 01-.04-2.91 2.8 2.8 0 012.47-1.47 2.8 2.8 0 012.5 1.45 2.88 2.88 0 01-2.47 4.33m0-4.8c-.68 0-1.3.37-1.63.96a1.9 1.9 0 000 1.96 1.9 1.9 0 003.27-1.95c-.36-.6-.97-.97-1.65-.97z"/></symbol><symbol id="messenger"><path d="M18.34 5l.02.04h.53a13.2 13.2 0 017.81 3.04 12.3 12.3 0 014.3 8.67l-.04.4.07.08v.73l-.07.09.04.38a12 12 0 01-.98 4.2c-2 4.64-6.59 7.54-11.99 7.54q-1.56 0-3.1-.35l-.3-.07c-.27-.07-.6-.16-.96-.16q-.42 0-.79.14-.8.32-1.55.68-.64.31-1.22.55l-.04.02H9.9q-.02.01-.05-.25l-.02-.96q.01-.75-.05-1.5a2.2 2.2 0 00-.85-1.52l-.15-.14a12.2 12.2 0 01-3.74-8.18l.04-.4-.07-.08v-.73l.08-.08-.04-.39a12.3 12.3 0 014.56-8.9 13.2 13.2 0 017.52-2.8h.53l.02-.04h.64m1.8 10.33l-4.28-2.78-.05-.04-.06-.03a2 2 0 00-.86-.2c-.93 0-1.43.75-1.6 1-.87 1.3-1.72 2.64-2.54 3.94q-1.11 1.75-2.27 3.5l-.03.04-.03.07a1.8 1.8 0 00.07 1.77 1.85 1.85 0 002.47.64l.04-.02.03-.03 2.17-1.48q1.33-.95 2.72-1.87l4.28 2.76a1.8 1.8 0 002.48-.55q1-1.58 2.02-3.14 1.49-2.28 2.93-4.57l.05-.06.02-.08c.25-.57.18-1.2-.16-1.7a1.8 1.8 0 00-1.53-.83h-.21a2 2 0 00-.7.25l-.02.02-.04.02-2.05 1.41q-1.39.97-2.82 1.93m-1.33-11.3H17.2q0 .02-.02.03h-.02a14.3 14.3 0 00-8.18 3.01 13.2 13.2 0 00-4.94 9.72q0 .04-.03.05v1.54c.04 0 .02.03.03.05.13 3.4 1.63 6.57 4.04 8.91.32.32.65.52.7 1.04.07.79.03 1.63.07 2.41.03.6.27 1.04.87 1.2.01 0 .05 0 .04.03h.42l.04-.04.22-.07c.93-.37 1.85-.89 2.78-1.23q.22-.1.42-.09c.35 0 .68.14 1.05.23q1.66.35 3.31.36c5.48 0 10.67-2.91 12.9-8.16.6-1.4 1.02-3.09 1.07-4.6q-.02-.04.02-.05V16.8c-.04 0-.01-.03-.02-.05a13.2 13.2 0 00-4.63-9.45 14.2 14.2 0 00-8.48-3.26h-.04q-.01.01-.02-.04zm1.32 12.43q.09 0 .18-.05c1.77-1.17 3.5-2.4 5.25-3.59q.14-.08.3-.1h.1c.59 0 1.02.58.79 1.14l-4.96 7.68a.8.8 0 01-1.1.24l-4.54-2.94a1 1 0 00-.29-.07l-.17.02q-2.64 1.79-5.26 3.62a1 1 0 01-.41.1.83.83 0 01-.74-1.2c1.64-2.45 3.16-4.98 4.8-7.43.22-.33.46-.55.78-.55q.2 0 .43.1l4.57 2.97q.13.07.27.07z"/></symbol><symbol id="phone"><path d="M18 32c-7.72 0-14-6.28-14-14S10.28 4 18 4s14 6.28 14 14-6.28 14-14 14m0-27C10.83 5 5 10.83 5 18s5.83 13 13 13 13-5.83 13-13S25.17 5 18 5m5.16 21.09c-3.49 0-6.9-1.41-9.37-3.88-2.5-2.51-3.92-5.98-3.88-9.52 0-.07.14-.77.46-1.09l1.08-1.08c.52-.53 1.49-.76 2.2-.52l.23.08c.69.23 1.37.96 1.56 1.65l.54 2c.19.71-.06 1.68-.58 2.19l-.51.51a7.19 7.19 0 004.68 4.69l.51-.51c.52-.52 1.48-.77 2.19-.58l2 .55c.71.19 1.42.86 1.65 1.56l.08.23c.23.71 0 1.67-.52 2.19l-1.08 1.08c-.32.32-1.04.46-1.13.46h-.11zM10.91 12.76c-.02 3.26 1.29 6.45 3.59 8.75 2.31 2.31 5.48 3.62 8.77 3.59.07-.02.36-.11.43-.17l1.08-1.08c.26-.26.39-.82.28-1.17l-.08-.23c-.12-.37-.58-.8-.96-.91L22.03 21c-.37-.1-.96.05-1.22.32l-.93.93-.28-.08a8.17 8.17 0 01-5.74-5.74l-.08-.28.93-.93c.27-.27.42-.85.32-1.23L14.49 12c-.1-.38-.54-.84-.91-.96l-.23-.08c-.36-.12-.91.01-1.18.28l-1.08 1.08c-.04.05-.12.27-.17.45z"/></symbol><symbol id="pinterest"><path d="M18.15 32c-2.72 0-4.14-.5-4.2-.54l-.5-.18-.42-.16A14 14 0 014 19.08v-2.23C4.37 10.35 9.8 4.7 16.38 4c.02 0 3.1-.02 3.3 0 6.6.86 11.66 6 12.31 12.52.02.15 0 2.75 0 2.85a14 14 0 01-12.3 12.58q-.84.05-1.53.05m-3.33-1.3c.78.18 2.38.43 4.77.28a13 13 0 0011.44-11.7V16.6A13.1 13.1 0 0019.58 4.95h-3.1c-6.12.65-11.18 5.9-11.5 11.96v2.12a13 13 0 007.67 10.88 13 13 0 01.12-3.43c.21-1.15.5-2.3.78-3.4q.39-1.5.7-3a5.3 5.3 0 01.34-4.7c.6-.9 1.5-1.34 2.53-1.24q.9.1 1.38.74.68.96.24 2.9-.12.49-.34 1.14c-.58 1.77-1 3.4-.02 3.92q.7.38 1.5.06c1.37-.55 2.52-2.38 2.89-3.5.66-1.98.45-3.9-.58-5.29a5 5 0 00-4.41-1.92 5.6 5.6 0 00-4.56 2.72 5.2 5.2 0 00-.37 5.02q.07.15.21.34c.24.36.39.6.41.84.02.28-.3 1.6-.36 1.75-.14.4-.39.54-.58.6-.52.14-1.03-.28-1.36-.56a6.4 6.4 0 01-2.22-4.6 9 9 0 012.26-6.47c2.82-3 8.62-3.77 12.41-1.64 2.64 1.5 4.03 4.64 3.61 8.24-.43 3.74-2.66 6.71-5.66 7.57-1.37.4-3.39.42-4.71-.75l-.07.25a22 22 0 01-1.35 4.07q-.22.43-.46.84l-.17.3zm2-15.6q-.89 0-1.43.81a4.3 4.3 0 00-.21 3.87l.08.15-.03.17q-.33 1.63-.74 3.21-.44 1.66-.77 3.35a13 13 0 00-.02 3.94l.02.14q.21-.42.45-.82.23-.37.43-.78c.6-1.22.94-2.58 1.29-3.9l.29-1.08.04-.14.26-.24.24.02c.3.03.46.27.64.53l.06.1c.94.93 2.64 1 3.91.63 2.62-.76 4.57-3.4 4.96-6.76.3-2.5-.38-5.74-3.12-7.29-3.38-1.89-8.73-1.2-11.24 1.46a8 8 0 00-2 5.74 5.4 5.4 0 001.85 3.91c.1.08.31.25.45.33.09-.33.28-1.18.29-1.34-.02 0-.16-.2-.25-.33a3 3 0 01-.29-.47 6.2 6.2 0 01.42-5.94 6.6 6.6 0 015.36-3.18c2.2-.05 4.06.76 5.21 2.31 1.22 1.64 1.48 3.9.72 6.16-.4 1.21-1.7 3.4-3.45 4.1a2.7 2.7 0 01-2.31-.1c-1.79-.95-.98-3.43-.44-5.08q.2-.6.32-1.06c.23-.98.2-1.73-.08-2.12q-.21-.29-.69-.34h-.2z"/></symbol><symbol id="quote"><path d="M6.92 29C-3.63 29-2.31 5.27 12.19 0c-5.5 5.76-7.91 11.86-3.95 17.14 6.59 0 9.21 11.86-1.33 11.86z" fill="#875c00"/><path d="M23.9 29c-10.54 0-9.22-23.73 5.28-29-5.5 5.76-7.91 11.86-3.95 17.14 6.59 0 9.21 11.86-1.33 11.86z" fill="#875c00"/></symbol><symbol id="search"><path d="M19.38 20.5a.5.5 0 01-.37-.16l-3.28-3.53a7.33 7.33 0 01-4.3 1.41c-4.04-.01-7.32-3.31-7.32-7.36S7.39 3.5 11.43 3.5s7.32 3.3 7.32 7.36c0 2.02-.81 3.92-2.25 5.31l3.25 3.5a.501.501 0 01-.37.84zm-7.95-16c-3.49 0-6.32 2.85-6.32 6.36s2.83 6.36 6.32 6.36c1.47 0 2.9-.52 4.03-1.47a6.34 6.34 0 002.28-4.89c0-3.51-2.83-6.36-6.32-6.36z"/></symbol><symbol id="telegram"><path d="M18 32c-7.716 0-14-6.274-14-14 0-7.725 6.284-14 14-14 7.715 0 14 6.284 14 14 0 7.715-6.285 14-14 14m0-27C10.835 5 5 10.836 5 18s5.835 13 13 13 13-5.835 13-13S25.174 5 18 5m3.803 20.215c-.55 0-1.121-.2-1.642-.57-.48-.34-3.512-2.372-3.902-2.622-.31-.19-.65-.57-.71-1.07-.03-.271.01-.681.41-1.092.23-.23 1.22-1.2 2.181-2.141a253 253 0 01-3.542 2.361c-.5.31-1.361.52-2.182.29-.65-.18-1.811-.53-2.282-.7-.28-.1-.92-.33-.92-1.04 0-.711.84-1.101 1.39-1.332.11-.05 10.798-4.583 11.639-4.893.79-.29 1.371-.32 1.811-.11.48.23.72.74.66 1.39-.15 1.522-1.3 9.127-1.58 9.958-.2.62-.51 1.561-1.341 1.561zm-1.391-10.087c.22 0 .41.09.54.23.28.31.24.78-.08 1.1-.11.111-.69.671-1.38 1.352a556 556 0 00-2.813 2.752c-.14.15-.13.24-.13.27.01.13.14.27.25.34.4.25 3.463 2.302 3.953 2.652.35.25.72.38 1.06.38.05-.03.17-.21.391-.87.23-.7 1.381-8.196 1.531-9.747.01-.12.02-.33-.1-.39-.08-.04-.34-.1-1.04.15-.751.27-10.258 4.303-11.589 4.873-.51.22-.7.34-.77.42.03 0 .11.04.24.09.41.15 1.51.48 2.211.681.5.14 1.091.01 1.391-.17.42-.26 5.444-3.623 5.774-3.893.19-.15.38-.22.57-.22z"/></symbol><symbol id="viber"><g clip-path="url(#a)"><path d="M29.772 10.14c-.463-1.68-1.37-3.012-2.712-3.948-1.702-1.198-3.658-1.622-5.35-1.883-2.354-.357-4.48-.406-6.513-.155-1.9.242-3.326.618-4.63 1.227-2.534 1.197-4.046 3.118-4.519 5.725a39 39 0 00-.472 3.544c-.208 2.549-.02 4.798.567 6.884.567 2.018 1.56 3.456 3.024 4.403.369.24.85.415 1.314.579.274.096.539.193.756.3.236.105.274.173.274.405-.019 1.458 0 4.306 0 4.306v.483h.898l.142-.135c.113-.107 2.77-2.733 3.705-3.785l.132-.145q.199-.232.426-.242c1.276-.029 2.58-.077 3.875-.144 1.56-.087 3.365-.242 5.066-.966 1.56-.666 2.656-1.68 3.337-3.1.709-1.476 1.134-3.07 1.295-4.875.283-3.196.085-5.967-.605-8.468zm-.33 8.391c-.152 1.69-.54 3.177-1.201 4.538-.577 1.197-1.512 2.057-2.854 2.626-1.56.666-3.27.811-4.755.888q-1.93.102-3.847.145c-.642.01-.87.28-1.115.57l-.113.135c-.662.744-2.25 2.327-3.1 3.177v-3.39c.009-.8-.464-1.12-.823-1.283a8 8 0 00-.832-.329c-.415-.154-.85-.309-1.124-.492-1.267-.811-2.118-2.066-2.618-3.853-.558-1.97-.728-4.113-.53-6.536a35 35 0 01.463-3.447c.416-2.308 1.711-3.949 3.989-5.011 1.21-.57 2.552-.917 4.348-1.149a21 21 0 012.476-.155c1.2 0 2.458.097 3.78.3 1.664.25 3.423.637 4.954 1.718 1.153.811 1.937 1.96 2.334 3.418.652 2.395.841 5.05.577 8.12zM18.6 11.985a.473.473 0 00-.472.483c0 .27.207.482.472.482 1.068 0 1.938.889 1.938 1.98a.473.473 0 10.945 0c0-1.622-1.295-2.945-2.883-2.945m4.074 4.036h.076a.47.47 0 00.463-.406c.037-.26.066-.521.066-.782 0-2.588-2.06-4.692-4.594-4.692-.255 0-.52.019-.765.067a.48.48 0 00-.388.56c.047.26.284.435.548.396.199-.038.397-.048.605-.048 2.014 0 3.649 1.67 3.649 3.727 0 .212-.02.415-.048.618a.49.49 0 00.388.56m-3.97-7.715c-.482 0-.954.058-1.418.164a.486.486 0 00-.359.58c.057.26.312.424.567.367a5.7 5.7 0 011.21-.136c2.996 0 5.435 2.491 5.435 5.552 0 .415-.047.83-.132 1.236a.486.486 0 00.359.58c.038 0 .066.009.104.009a.485.485 0 00.463-.377 6.7 6.7 0 00.16-1.448c0-3.592-2.863-6.517-6.38-6.517zm3.185 16.327q-.495 0-1.02-.232c-4.405-1.902-7.732-4.924-9.877-8.979-.35-.657-.615-1.361-.88-2.027-.085-.223-.17-.454-.264-.676-.076-.194-.095-.377-.114-.541l-.019-.164c.029-1.854 1.409-2.78 2.571-3.051.549-.126 1.078.038 1.532.482a10.2 10.2 0 012.145 3.042c.312.666.18 1.313-.368 1.825-.086.087-.18.164-.284.241-.7.54-.756.792-.388 1.584.71 1.535 1.872 2.626 3.545 3.33.265.116.482.068.68-.164l.076-.077c.34-.58.785-.936 1.314-1.052.586-.126 1.238.067 1.89.54.369.27.737.55 1.096.821l.653.493c1.323.984.935 2.027.463 2.829-.425.704-1.059 1.245-1.9 1.602a2.3 2.3 0 01-.87.184zM10.661 11.937l.019.135a.9.9 0 00.047.27c.094.232.18.454.264.686.265.675.51 1.322.832 1.92 2.042 3.863 5.208 6.74 9.414 8.555.426.184.804.194 1.153.049.652-.28 1.144-.686 1.456-1.217.454-.763.406-1.081-.218-1.545l-.652-.492c-.359-.27-.718-.55-1.077-.811-.303-.222-.747-.464-1.144-.377q-.396.087-.709.609a1 1 0 01-.16.212c-.501.54-1.135.685-1.758.415-1.881-.791-3.242-2.076-4.046-3.814-.558-1.207-.378-1.96.68-2.77.076-.059.143-.117.218-.184.236-.222.284-.415.151-.695a9.5 9.5 0 00-1.947-2.762c-.293-.28-.52-.27-.67-.241-.87.193-1.815.84-1.844 2.037z"/></g></symbol><symbol id="whatsapp"><path d="M4 32l2.027-7.235A13.9 13.9 0 014.21 17.9c0-7.664 6.23-13.9 13.9-13.9C25.779 4 32 10.236 32 17.9s-6.231 13.9-13.89 13.9a13.9 13.9 0 01-6.6-1.669L4 31.99zm7.65-2.928l.169.1a12.9 12.9 0 006.29 1.639c7.11 0 12.892-5.786 12.892-12.9 0-7.116-5.781-12.912-12.891-12.912S5.208 10.785 5.208 17.9c0 2.298.62 4.567 1.778 6.545l.11.18-1.678 5.986 6.221-1.539zm6.56-4.966c-3.036-1.3-6.351-5.526-6.351-5.526-.47-.62-1.568-2.249-1.568-3.978 0-1.838.929-2.818 1.328-3.237.57-.62 1.159-.68 1.388-.68.25 0 .779.01.779.01.4 0 .839.11 1.178.92l.4.969c.31.75.629 1.519.689 1.639.19.37.2.73.03 1.069l-.05.1c-.09.19-.69.91-1.059 1.369.28.41.949 1.469 1.928 2.328 1.088.96 2.945 1.749 2.955 1.749.27-.33.909-1.07 1.109-1.379.48-.7 1.098-.48 1.398-.37.41.14 3.255 1.53 3.405 1.779.25.4.1 1.389-.17 2.118-.4 1.09-2.077 1.9-2.826 2.019-1.907.3-3.744-.57-4.583-.92zm-5.782-12.122s-1.128.82-1.128 2.618c0 1.46 1.038 2.948 1.358 3.368l.07.09c.998 1.409 3.065 3.917 5.881 5.116.799.34 1.438.55 2.007.73.82.26 1.558.19 2.037.12.61-.09 1.818-.79 2.027-1.37.21-.589.3-1.079.23-1.258-.08-.19-3.026-1.56-3.155-1.35-.3.51-1.109 1.41-1.119 1.42-.549.62-1.168.31-1.378.21-.04-.02-.1-.05-.17-.08a10 10 0 01-2.826-1.76c-1.088-.959-1.827-2.128-2.097-2.578-.409-.699.06-1.159.24-1.339.09-.09.2-.22.31-.36l.2-.24c.11-.129.319-.539.259-.659-.06-.11-1.248-2.908-1.308-2.968-.14-.16-1.198 0-1.448.27z"/></symbol><symbol id="youtube"><path d="M18.81 31.98c-5.28 0-10.51-.39-13.66-1.02-2.19-.5-3.83-2.08-4.19-4.02A46 46 0 01.2 18c0-3.11.23-6.12.68-8.92.34-1.98 1.94-3.52 4.17-4.03 2.94-.63 8.3-1.03 13.68-1.03s10.66.4 13.58 1.02c2.19.5 3.82 2.07 4.18 4.02.53 2.66.88 5.66 1.02 8.92-.09 3.8-.53 6.92-.85 8.95-.35 1.98-1.95 3.53-4.17 4.03-3.16.63-8.4 1.02-13.67 1.02zm-.08-26.96c-5.31 0-10.59.39-13.46 1-1.43.32-3.08 1.34-3.4 3.22A56 56 0 001.2 18c0 4.14.41 7.04.75 8.75.29 1.56 1.62 2.83 3.41 3.23 3.08.61 8.24 1 13.45 1s10.38-.38 13.47-1c1.42-.32 3.07-1.34 3.4-3.22.32-1.99.75-5.07.83-8.77a59 59 0 00-1-8.74c-.28-1.56-1.62-2.83-3.41-3.23-2.86-.61-8.11-1-13.37-1m-5.05 19.74V11.24L25.46 18zm1-11.8v10.07L23.45 18z"/></symbol></svg>