<svg xmlns="http://www.w3.org/2000/svg" width="36" height="36" viewBox="0 0 36 36"><path d="M29.05 32H22.4V19.95h3.42l.38-2.68h-3.8V15.2c0-.65 0-2.61 2.28-2.61h1.63V10a20 20 0 0 0-2.16-.1c-2.98 0-4.43 1.6-4.43 4.89v2.48h-3.68v2.68h3.68V32H6.95A2.95 2.95 0 0 1 4 29.05V6.95A2.96 2.96 0 0 1 6.95 4h22.1A2.95 2.95 0 0 1 32 6.95v22.1A2.96 2.96 0 0 1 29.05 32m-5.64-1h5.64c1.08 0 1.95-.88 1.95-1.95V6.95C31 5.87 30.12 5 29.05 5H6.95C5.87 5 5 5.88 5 6.95v22.1C5 30.13 5.88 31 6.95 31h11.77V20.95h-3.68v-4.68h3.68v-1.48c0-3.85 1.88-5.89 5.43-5.89 1.5 0 2.3.11 2.7.16l.43.06.02.44v4.03h-2.63c-.85 0-1.28.25-1.28 1.6v1.08h3.95l-.67 4.68h-3.29V31z"/></svg>