<svg xmlns="http://www.w3.org/2000/svg" width="36" height="36" viewBox="0 0 36 36"><path d="m17.96 35.97-.78-.93q-.4-.45-.78-.94l-.59-.74c-.79-.99-1.62-2.02-2.39-3.06a108 108 0 0 1-2.79-3.99 47 47 0 0 1-2.74-4.65 28 28 0 0 1-2.22-5.42q-.17-.67-.3-1.35l-.03-.15q-.31-1.57-.2-2.89A12.7 12.7 0 0 1 15.8.22a13 13 0 0 1 12.26 4.56 12.3 12.3 0 0 1 2.82 8.33 16 16 0 0 1-.77 3.87 32 32 0 0 1-2.67 5.91l-.08.13q-.6 1.05-1.22 2.08a75 75 0 0 1-3.82 5.57 89 89 0 0 1-3.99 4.92l-.39.4zm.02-34.96q-.94 0-2.02.2-1.3.22-2.3.62a11.8 11.8 0 0 0-7.54 10.1q-.1 1.18.18 2.6l.03.15c.1.43.17.86.3 1.28a27 27 0 0 0 2.14 5.23 47 47 0 0 0 2.7 4.55c1 1.5 1.84 2.73 2.75 3.96a91 91 0 0 0 2.37 3.03l.6.75q.36.46.76.91l.06.07a89 89 0 0 0 3.53-4.4c1.43-1.9 2.66-3.7 3.77-5.49q.62-1.02 1.2-2.05l.07-.13a30 30 0 0 0 2.58-5.72q.62-1.9.72-3.62a11.4 11.4 0 0 0-2.6-7.65 12 12 0 0 0-8.86-4.38zM18 18.77a6.15 6.15 0 0 1-6.2-6.09A6.14 6.14 0 0 1 18 6.6c3.42 0 6.2 2.73 6.2 6.08a6.16 6.16 0 0 1-6.2 6.1M18 7.6a5.15 5.15 0 0 0-5.2 5.08c0 2.8 2.33 5.1 5.2 5.1s5.2-2.29 5.2-5.1A5.14 5.14 0 0 0 18 7.6"/></svg>