<svg xmlns="http://www.w3.org/2000/svg" width="24" height="24" viewBox="0 0 24 24"><path d="M12 3.5c-4.69 0-8.5 3.81-8.5 8.5s3.81 8.5 8.5 8.5 8.5-3.81 8.5-8.5-3.81-8.5-8.5-8.5m0 16c-4.14 0-7.5-3.36-7.5-7.5S7.86 4.5 12 4.5s7.5 3.36 7.5 7.5-3.36 7.5-7.5 7.5m-.11-10.27c.19 0 .34-.05.44-.16.11-.11.16-.25.16-.44s-.05-.34-.16-.44-.25-.16-.44-.16-.34.05-.46.16c-.11.11-.17.25-.17.44s.06.34.17.44c.11.11.27.16.46.16m.85 7.1a.5.5 0 0 1-.26-.29c-.05-.13-.07-.34-.07-.63v-2.7c0-.43 0-.8.01-1.12 0-.32.01-.51.01-.57 0-.03-.01-.05-.04-.07-.03-.03-.05-.04-.07-.04h-.06l-1.86.87s-.03.05-.01.1.05.07.09.07h.01c.26-.13.47-.2.65-.2s.29.08.36.23c.08.15.11.4.11.75v2.68c0 .29-.02.5-.07.63s-.14.23-.27.29c-.12.05-.32.07-.57.07q-.03 0-.03.09c0 .09 0 .09.03.09.23 0 .41 0 .54-.01h1.54c.13 0 .31.01.53.01.03 0 .04-.03.04-.09s-.01-.09-.04-.09c-.26 0-.45-.02-.57-.07"/></svg>