<svg xmlns="http://www.w3.org/2000/svg" width="36" height="36" viewBox="0 0 36 36"><path d="M23.63 32H12.37A8.4 8.4 0 0 1 4 23.63V12.37A8.4 8.4 0 0 1 12.37 4h11.26A8.4 8.4 0 0 1 32 12.37v11.26A8.4 8.4 0 0 1 23.63 32M12.37 5A7.4 7.4 0 0 0 5 12.37v11.26A7.4 7.4 0 0 0 12.37 31h11.26A7.4 7.4 0 0 0 31 23.63V12.37A7.4 7.4 0 0 0 23.63 5zM18 25.25a7.26 7.26 0 1 1 0-14.52 7.26 7.26 0 0 1 0 14.52m0-13.5a6.26 6.26 0 1 0 0 12.52 6.26 6.26 0 0 0 0-12.52M18 23a5 5 0 0 1-5-5 4.97 4.97 0 0 1 5-4.99 4.97 4.97 0 0 1 3.53 8.52A5 5 0 0 1 18 23m0-9a3.97 3.97 0 0 0-4 4 4 4 0 1 0 4-4m7.88-2.25a1.62 1.62 0 1 1 0-3.24 1.62 1.62 0 0 1 0 3.24m0-2.25a.6.6 0 0 0-.62.62c0 .34.28.62.62.62s.62-.28.62-.62a.6.6 0 0 0-.62-.62"/></svg>