<svg xmlns="http://www.w3.org/2000/svg" width="24" height="24" viewBox="0 0 24 24"><path d="M11.97 20.5a.47.47 0 0 1-.35-.15l-7.98-7.97c-.98-.98-1.51-2.27-1.51-3.65s.54-2.68 1.51-3.66c.98-.97 2.28-1.51 3.66-1.51s2.68.54 3.65 1.51l1.01 1.01 1.01-1.01a5.1 5.1 0 0 1 1.67-1.15c.65-.27 1.32-.42 2.01-.42s1.36.12 2 .38 1.21.64 1.7 1.13.87 1.06 1.13 1.7.39 1.31.38 2c0 .69-.15 1.36-.42 2-.27.63-.66 1.2-1.16 1.68l-7.96 7.97a.5.5 0 0 1-.35.15ZM4.35 5.78c-.79.79-1.22 1.83-1.22 2.95s.43 2.16 1.22 2.95l7.62 7.62 7.62-7.62c.41-.39.72-.85.94-1.36s.33-1.05.34-1.61-.1-1.1-.31-1.61-.52-.98-.91-1.37-.85-.7-1.37-.91c-.51-.21-1.08-.31-1.61-.31-.56 0-1.1.12-1.61.34s-.97.53-1.35.93l-1.37 1.37c-.2.2-.51.2-.71 0l-1.37-1.37c-.79-.79-1.83-1.22-2.95-1.22s-2.16.43-2.95 1.22z"/></svg>