<svg xmlns="http://www.w3.org/2000/svg" width="36" height="36" viewBox="0 0 36 36"><path d="M29.44 32H6.58l.02-.12a3.5 3.5 0 0 1-2.49-2.48l-.12.02V6.59l.12.02a3.5 3.5 0 0 1 2.47-2.5L6.59 4h22.85l-.02.13a3.5 3.5 0 0 1 2.48 2.49l.1-.03v22.85l-.11-.02a3.5 3.5 0 0 1-2.48 2.48l.02.12zm-22.08-.98h21.27l.05-.04.25.02A2.5 2.5 0 0 0 31 28.9l-.02-.2.05-.05V7.37l-.05-.05.02-.21a2.5 2.5 0 0 0-2.11-2.12l-.2.01-.05-.04H7.39L7.34 5h-.21A2.5 2.5 0 0 0 5 7.1l.02.18-.06.07v21.27l.06.05-.03.2A2.5 2.5 0 0 0 7.12 31l.19-.03zm20.4-2.77h-4.49v-7.4q-.03-2.26-1.57-2.36-.92-.03-1.46.46c-.54.5-.66 1.32-.66 1.91v7.4h-4.81l-.03-.5V14.27l.5-.01h4.33v.9a5.3 5.3 0 0 1 5.04-1.1c2.28.6 3.63 2.61 3.64 5.38v8.46l-.27.34h-.25zm-3.52-.96h3.07v-7.84c-.01-1.11-.3-3.76-2.92-4.45-1.89-.5-3.7.09-4.73 1.54q-.11.17-.23.29l-.82.8v-2.4h-2.9v12.06h2.9v-6.43q.03-1.71.96-2.62a2.8 2.8 0 0 1 2.18-.71c1.57.07 2.47 1.29 2.48 3.31v6.43zm-11.1.96H8.15v-14h5zm-4.02-.96h3.06V15.23H9.12zm1.5-13.77a2.8 2.8 0 0 1-2.45-1.4 2.9 2.9 0 0 1-.04-2.91 2.8 2.8 0 0 1 2.47-1.47 2.8 2.8 0 0 1 2.5 1.45 2.88 2.88 0 0 1-2.47 4.33m0-4.8c-.68 0-1.3.37-1.63.96a1.9 1.9 0 0 0 0 1.96 1.9 1.9 0 0 0 3.27-1.95c-.36-.6-.97-.97-1.65-.97z"/></svg>