<svg xmlns="http://www.w3.org/2000/svg" width="24" height="24" viewBox="0 0 24 24"><path d="M7.14 10.14c.2-.2.51-.2.71 0s.2.51 0 .71L5.6 13.1a3.754 3.754 0 0 0 0 5.3 3.754 3.754 0 0 0 5.3 0l2.25-2.25c.2-.21.51-.21.71 0 .2.2.2.51 0 .71l-2.25 2.25c-.93.93-2.14 1.39-3.36 1.39s-2.43-.46-3.36-1.39a4.75 4.75 0 0 1 0-6.71l2.25-2.25Zm7.5-1.5c.2-.2.51-.2.71 0s.2.51 0 .71l-6.01 6.01a.485.485 0 0 1-.7 0c-.2-.2-.2-.51 0-.71l6.01-6.01ZM12.4 4.89a4.75 4.75 0 0 1 6.71 0c1.85 1.86 1.85 4.87 0 6.72l-2.25 2.25a.485.485 0 0 1-.7 0c-.2-.2-.2-.51 0-.71l2.25-2.25c.71-.71 1.1-1.65 1.1-2.65s-.39-1.94-1.1-2.65a3.754 3.754 0 0 0-5.3 0l-2.25 2.25c-.2.2-.51.2-.71 0s-.2-.51 0-.71z"/></svg>