<svg xmlns="http://www.w3.org/2000/svg" width="36" height="36" viewBox="0 0 36 36"><path d="m18.34 5 .02.04h.53a13.2 13.2 0 0 1 7.81 3.04 12.3 12.3 0 0 1 4.3 8.67l-.04.4.07.08v.73l-.07.09.04.38a12 12 0 0 1-.98 4.2c-2 4.64-6.59 7.54-11.99 7.54q-1.56 0-3.1-.35l-.3-.07c-.27-.07-.6-.16-.96-.16q-.42 0-.79.14-.8.32-1.55.68-.64.31-1.22.55l-.04.02H9.9q-.02.01-.05-.25l-.02-.96q.01-.75-.05-1.5a2.2 2.2 0 0 0-.85-1.52l-.15-.14a12.2 12.2 0 0 1-3.74-8.18l.04-.4-.07-.08v-.73l.08-.08-.04-.39a12.3 12.3 0 0 1 4.56-8.9 13.2 13.2 0 0 1 7.52-2.8h.53l.02-.04h.64m1.8 10.33-4.28-2.78-.05-.04-.06-.03a2 2 0 0 0-.86-.2c-.93 0-1.43.75-1.6 1-.87 1.3-1.72 2.64-2.54 3.94q-1.11 1.75-2.27 3.5l-.03.04-.03.07a1.8 1.8 0 0 0 .07 1.77 1.85 1.85 0 0 0 2.47.64l.04-.02.03-.03 2.17-1.48q1.33-.95 2.72-1.87l4.28 2.76a1.8 1.8 0 0 0 2.48-.55q1-1.58 2.02-3.14 1.49-2.28 2.93-4.57l.05-.06.02-.08c.25-.57.18-1.2-.16-1.7a1.8 1.8 0 0 0-1.53-.83h-.21a2 2 0 0 0-.7.25l-.02.02-.04.02-2.05 1.41q-1.39.97-2.82 1.93m-1.33-11.3H17.2q0 .02-.02.03h-.02a14.3 14.3 0 0 0-8.18 3.01 13.2 13.2 0 0 0-4.94 9.72q0 .04-.03.05v1.54c.04 0 .02.03.03.05.13 3.4 1.63 6.57 4.04 8.91.32.32.65.52.7 1.04.07.79.03 1.63.07 2.41.03.6.27 1.04.87 1.2.01 0 .05 0 .04.03h.42l.04-.04.22-.07c.93-.37 1.85-.89 2.78-1.23q.22-.1.42-.09c.35 0 .68.14 1.05.23q1.66.35 3.31.36c5.48 0 10.67-2.91 12.9-8.16.6-1.4 1.02-3.09 1.07-4.6q-.02-.04.02-.05V16.8c-.04 0-.01-.03-.02-.05a13.2 13.2 0 0 0-4.63-9.45 14.2 14.2 0 0 0-8.48-3.26h-.04q-.01.01-.02-.04zm1.32 12.43q.09 0 .18-.05c1.77-1.17 3.5-2.4 5.25-3.59q.14-.08.3-.1h.1c.59 0 1.02.58.79 1.14l-4.96 7.68a.8.8 0 0 1-1.1.24l-4.54-2.94a1 1 0 0 0-.29-.07l-.17.02q-2.64 1.79-5.26 3.62a1 1 0 0 1-.41.1.83.83 0 0 1-.74-1.2c1.64-2.45 3.16-4.98 4.8-7.43.22-.33.46-.55.78-.55q.2 0 .43.1l4.57 2.97q.13.07.27.07z"/></svg>