<svg xmlns="http://www.w3.org/2000/svg" width="36" height="36" viewBox="0 0 36 36"><path d="M18 32c-7.72 0-14-6.28-14-14S10.28 4 18 4s14 6.28 14 14-6.28 14-14 14m0-27C10.83 5 5 10.83 5 18s5.83 13 13 13 13-5.83 13-13S25.17 5 18 5m5.16 21.09c-3.49 0-6.9-1.41-9.37-3.88-2.5-2.51-3.92-5.98-3.88-9.52 0-.07.14-.77.46-1.09l1.08-1.08c.52-.53 1.49-.76 2.2-.52l.23.08c.69.23 1.37.96 1.56 1.65l.54 2c.19.71-.06 1.68-.58 2.19l-.51.51a7.19 7.19 0 0 0 4.68 4.69l.51-.51c.52-.52 1.48-.77 2.19-.58l2 .55c.71.19 1.42.86 1.65 1.56l.08.23c.23.71 0 1.67-.52 2.19l-1.08 1.08c-.32.32-1.04.46-1.13.46h-.11zM10.91 12.76c-.02 3.26 1.29 6.45 3.59 8.75 2.31 2.31 5.48 3.62 8.77 3.59.07-.02.36-.11.43-.17l1.08-1.08c.26-.26.39-.82.28-1.17l-.08-.23c-.12-.37-.58-.8-.96-.91L22.03 21c-.37-.1-.96.05-1.22.32l-.93.93-.28-.08a8.17 8.17 0 0 1-5.74-5.74l-.08-.28.93-.93c.27-.27.42-.85.32-1.23L14.49 12c-.1-.38-.54-.84-.91-.96l-.23-.08c-.36-.12-.91.01-1.18.28l-1.08 1.08c-.04.05-.12.27-.17.45z"/></svg>