<svg xmlns="http://www.w3.org/2000/svg" width="36" height="36" viewBox="0 0 36 36"><path d="M18.15 32c-2.72 0-4.14-.5-4.2-.54l-.5-.18-.42-.16A14 14 0 0 1 4 19.08v-2.23C4.37 10.35 9.8 4.7 16.38 4c.02 0 3.1-.02 3.3 0 6.6.86 11.66 6 12.31 12.52.02.15 0 2.75 0 2.85a14 14 0 0 1-12.3 12.58q-.84.05-1.53.05m-3.33-1.3c.78.18 2.38.43 4.77.28a13 13 0 0 0 11.44-11.7V16.6A13.1 13.1 0 0 0 19.58 4.95h-3.1c-6.12.65-11.18 5.9-11.5 11.96v2.12a13 13 0 0 0 7.67 10.88 13 13 0 0 1 .12-3.43c.21-1.15.5-2.3.78-3.4q.39-1.5.7-3a5.3 5.3 0 0 1 .34-4.7c.6-.9 1.5-1.34 2.53-1.24q.9.1 1.38.74.68.96.24 2.9-.12.49-.34 1.14c-.58 1.77-1 3.4-.02 3.92q.7.38 1.5.06c1.37-.55 2.52-2.38 2.89-3.5.66-1.98.45-3.9-.58-5.29a5 5 0 0 0-4.41-1.92 5.6 5.6 0 0 0-4.56 2.72 5.2 5.2 0 0 0-.37 5.02q.07.15.21.34c.24.36.39.6.41.84.02.28-.3 1.6-.36 1.75-.14.4-.39.54-.58.6-.52.14-1.03-.28-1.36-.56a6.4 6.4 0 0 1-2.22-4.6 9 9 0 0 1 2.26-6.47c2.82-3 8.62-3.77 12.41-1.64 2.64 1.5 4.03 4.64 3.61 8.24-.43 3.74-2.66 6.71-5.66 7.57-1.37.4-3.39.42-4.71-.75l-.07.25a22 22 0 0 1-1.35 4.07q-.22.43-.46.84l-.17.3zm2-15.6q-.89 0-1.43.81a4.3 4.3 0 0 0-.21 3.87l.08.15-.03.17q-.33 1.63-.74 3.21-.44 1.66-.77 3.35a13 13 0 0 0-.02 3.94l.02.14q.21-.42.45-.82.23-.37.43-.78c.6-1.22.94-2.58 1.29-3.9l.29-1.08.04-.14.26-.24.24.02c.3.03.46.27.64.53l.06.1c.94.93 2.64 1 3.91.63 2.62-.76 4.57-3.4 4.96-6.76.3-2.5-.38-5.74-3.12-7.29-3.38-1.89-8.73-1.2-11.24 1.46a8 8 0 0 0-2 5.74 5.4 5.4 0 0 0 1.85 3.91c.1.08.31.25.45.33.09-.33.28-1.18.29-1.34-.02 0-.16-.2-.25-.33a3 3 0 0 1-.29-.47 6.2 6.2 0 0 1 .42-5.94 6.6 6.6 0 0 1 5.36-3.18c2.2-.05 4.06.76 5.21 2.31 1.22 1.64 1.48 3.9.72 6.16-.4 1.21-1.7 3.4-3.45 4.1a2.7 2.7 0 0 1-2.31-.1c-1.79-.95-.98-3.43-.44-5.08q.2-.6.32-1.06c.23-.98.2-1.73-.08-2.12q-.21-.29-.69-.34h-.2z"/></svg>