<svg xmlns="http://www.w3.org/2000/svg" width="36" height="36" viewBox="0 0 36 36"><path d="M18 32c-7.716 0-14-6.274-14-14 0-7.725 6.284-14 14-14 7.715 0 14 6.284 14 14 0 7.715-6.285 14-14 14m0-27C10.835 5 5 10.836 5 18s5.835 13 13 13 13-5.835 13-13S25.174 5 18 5m3.803 20.215c-.55 0-1.121-.2-1.642-.57-.48-.34-3.512-2.372-3.902-2.622-.31-.19-.65-.57-.71-1.07-.03-.271.01-.681.41-1.092.23-.23 1.22-1.2 2.181-2.141a253 253 0 0 1-3.542 2.361c-.5.31-1.361.52-2.182.29-.65-.18-1.811-.53-2.282-.7-.28-.1-.92-.33-.92-1.04 0-.711.84-1.101 1.39-1.332.11-.05 10.798-4.583 11.639-4.893.79-.29 1.371-.32 1.811-.11.48.23.72.74.66 1.39-.15 1.522-1.3 9.127-1.58 9.958-.2.62-.51 1.561-1.341 1.561zm-1.391-10.087c.22 0 .41.09.54.23.28.31.24.78-.08 1.1-.11.111-.69.671-1.38 1.352a556 556 0 0 0-2.813 2.752c-.14.15-.13.24-.13.27.01.13.14.27.25.34.4.25 3.463 2.302 3.953 2.652.35.25.72.38 1.06.38.05-.03.17-.21.391-.87.23-.7 1.381-8.196 1.531-9.747.01-.12.02-.33-.1-.39-.08-.04-.34-.1-1.04.15-.751.27-10.258 4.303-11.589 4.873-.51.22-.7.34-.77.42.03 0 .11.04.24.09.41.15 1.51.48 2.211.681.5.14 1.091.01 1.391-.17.42-.26 5.444-3.623 5.774-3.893.19-.15.38-.22.57-.22z"/></svg>