<svg xmlns="http://www.w3.org/2000/svg" width="36" height="36" viewBox="0 0 36 36"><g clip-path="url(#a)"><path d="M29.772 10.14c-.463-1.68-1.37-3.012-2.712-3.948-1.702-1.198-3.658-1.622-5.35-1.883-2.354-.357-4.48-.406-6.513-.155-1.9.242-3.326.618-4.63 1.227-2.534 1.197-4.046 3.118-4.519 5.725a39 39 0 0 0-.472 3.544c-.208 2.549-.02 4.798.567 6.884.567 2.018 1.56 3.456 3.024 4.403.369.24.85.415 1.314.579.274.096.539.193.756.3.236.105.274.173.274.405-.019 1.458 0 4.306 0 4.306v.483h.898l.142-.135c.113-.107 2.77-2.733 3.705-3.785l.132-.145q.199-.232.426-.242c1.276-.029 2.58-.077 3.875-.144 1.56-.087 3.365-.242 5.066-.966 1.56-.666 2.656-1.68 3.337-3.1.709-1.476 1.134-3.07 1.295-4.875.283-3.196.085-5.967-.605-8.468zm-.33 8.391c-.152 1.69-.54 3.177-1.201 4.538-.577 1.197-1.512 2.057-2.854 2.626-1.56.666-3.27.811-4.755.888q-1.93.102-3.847.145c-.642.01-.87.28-1.115.57l-.113.135c-.662.744-2.25 2.327-3.1 3.177v-3.39c.009-.8-.464-1.12-.823-1.283a8 8 0 0 0-.832-.329c-.415-.154-.85-.309-1.124-.492-1.267-.811-2.118-2.066-2.618-3.853-.558-1.97-.728-4.113-.53-6.536a35 35 0 0 1 .463-3.447c.416-2.308 1.711-3.949 3.989-5.011 1.21-.57 2.552-.917 4.348-1.149a21 21 0 0 1 2.476-.155c1.2 0 2.458.097 3.78.3 1.664.25 3.423.637 4.954 1.718 1.153.811 1.937 1.96 2.334 3.418.652 2.395.841 5.05.577 8.12zM18.6 11.985a.473.473 0 0 0-.472.483c0 .27.207.482.472.482 1.068 0 1.938.889 1.938 1.98a.473.473 0 1 0 .945 0c0-1.622-1.295-2.945-2.883-2.945m4.074 4.036h.076a.47.47 0 0 0 .463-.406c.037-.26.066-.521.066-.782 0-2.588-2.06-4.692-4.594-4.692-.255 0-.52.019-.765.067a.48.48 0 0 0-.388.56c.047.26.284.435.548.396.199-.038.397-.048.605-.048 2.014 0 3.649 1.67 3.649 3.727 0 .212-.02.415-.048.618a.49.49 0 0 0 .388.56m-3.97-7.715c-.482 0-.954.058-1.418.164a.486.486 0 0 0-.359.58c.057.26.312.424.567.367a5.7 5.7 0 0 1 1.21-.136c2.996 0 5.435 2.491 5.435 5.552 0 .415-.047.83-.132 1.236a.486.486 0 0 0 .359.58c.038 0 .066.009.104.009a.485.485 0 0 0 .463-.377 6.7 6.7 0 0 0 .16-1.448c0-3.592-2.863-6.517-6.38-6.517zm3.185 16.327q-.495 0-1.02-.232c-4.405-1.902-7.732-4.924-9.877-8.979-.35-.657-.615-1.361-.88-2.027-.085-.223-.17-.454-.264-.676-.076-.194-.095-.377-.114-.541l-.019-.164c.029-1.854 1.409-2.78 2.571-3.051.549-.126 1.078.038 1.532.482a10.2 10.2 0 0 1 2.145 3.042c.312.666.18 1.313-.368 1.825-.086.087-.18.164-.284.241-.7.54-.756.792-.388 1.584.71 1.535 1.872 2.626 3.545 3.33.265.116.482.068.68-.164l.076-.077c.34-.58.785-.936 1.314-1.052.586-.126 1.238.067 1.89.54.369.27.737.55 1.096.821l.653.493c1.323.984.935 2.027.463 2.829-.425.704-1.059 1.245-1.9 1.602a2.3 2.3 0 0 1-.87.184zM10.661 11.937l.019.135a.9.9 0 0 0 .047.27c.094.232.18.454.264.686.265.675.51 1.322.832 1.92 2.042 3.863 5.208 6.74 9.414 8.555.426.184.804.194 1.153.049.652-.28 1.144-.686 1.456-1.217.454-.763.406-1.081-.218-1.545l-.652-.492c-.359-.27-.718-.55-1.077-.811-.303-.222-.747-.464-1.144-.377q-.396.087-.709.609a1 1 0 0 1-.16.212c-.501.54-1.135.685-1.758.415-1.881-.791-3.242-2.076-4.046-3.814-.558-1.207-.378-1.96.68-2.77.076-.059.143-.117.218-.184.236-.222.284-.415.151-.695a9.5 9.5 0 0 0-1.947-2.762c-.293-.28-.52-.27-.67-.241-.87.193-1.815.84-1.844 2.037z"/></g><defs><clipPath id="a"><path fill="#fff" d="M5.5 4h25v28h-25z"/></clipPath></defs></svg>