<svg xmlns="http://www.w3.org/2000/svg" width="36" height="36" viewBox="0 0 36 36"><path d="m4 32 2.027-7.235A13.9 13.9 0 0 1 4.21 17.9c0-7.664 6.23-13.9 13.9-13.9C25.779 4 32 10.236 32 17.9s-6.231 13.9-13.89 13.9a13.9 13.9 0 0 1-6.6-1.669L4 31.99zm7.65-2.928.169.1a12.9 12.9 0 0 0 6.29 1.639c7.11 0 12.892-5.786 12.892-12.9 0-7.116-5.781-12.912-12.891-12.912S5.208 10.785 5.208 17.9c0 2.298.62 4.567 1.778 6.545l.11.18-1.678 5.986 6.221-1.539zm6.56-4.966c-3.036-1.3-6.351-5.526-6.351-5.526-.47-.62-1.568-2.249-1.568-3.978 0-1.838.929-2.818 1.328-3.237.57-.62 1.159-.68 1.388-.68.25 0 .779.01.779.01.4 0 .839.11 1.178.92l.4.969c.31.75.629 1.519.689 1.639.19.37.2.73.03 1.069l-.05.1c-.09.19-.69.91-1.059 1.369.28.41.949 1.469 1.928 2.328 1.088.96 2.945 1.749 2.955 1.749.27-.33.909-1.07 1.109-1.379.48-.7 1.098-.48 1.398-.37.41.14 3.255 1.53 3.405 1.779.25.4.1 1.389-.17 2.118-.4 1.09-2.077 1.9-2.826 2.019-1.907.3-3.744-.57-4.583-.92zm-5.782-12.122s-1.128.82-1.128 2.618c0 1.46 1.038 2.948 1.358 3.368l.07.09c.998 1.409 3.065 3.917 5.881 5.116.799.34 1.438.55 2.007.73.82.26 1.558.19 2.037.12.61-.09 1.818-.79 2.027-1.37.21-.589.3-1.079.23-1.258-.08-.19-3.026-1.56-3.155-1.35-.3.51-1.109 1.41-1.119 1.42-.549.62-1.168.31-1.378.21-.04-.02-.1-.05-.17-.08a10 10 0 0 1-2.826-1.76c-1.088-.959-1.827-2.128-2.097-2.578-.409-.699.06-1.159.24-1.339.09-.09.2-.22.31-.36l.2-.24c.11-.129.319-.539.259-.659-.06-.11-1.248-2.908-1.308-2.968-.14-.16-1.198 0-1.448.27z"/></svg>