<svg xmlns="http://www.w3.org/2000/svg" width="38" height="36" viewBox="0 0 38 36"><path d="M18.81 31.98c-5.28 0-10.51-.39-13.66-1.02-2.19-.5-3.83-2.08-4.19-4.02A46 46 0 0 1 .2 18c0-3.11.23-6.12.68-8.92.34-1.98 1.94-3.52 4.17-4.03 2.94-.63 8.3-1.03 13.68-1.03s10.66.4 13.58 1.02c2.19.5 3.82 2.07 4.18 4.02.53 2.66.88 5.66 1.02 8.92-.09 3.8-.53 6.92-.85 8.95-.35 1.98-1.95 3.53-4.17 4.03-3.16.63-8.4 1.02-13.67 1.02zm-.08-26.96c-5.31 0-10.59.39-13.46 1-1.43.32-3.08 1.34-3.4 3.22A56 56 0 0 0 1.2 18c0 4.14.41 7.04.75 8.75.29 1.56 1.62 2.83 3.41 3.23 3.08.61 8.24 1 13.45 1s10.38-.38 13.47-1c1.42-.32 3.07-1.34 3.4-3.22.32-1.99.75-5.07.83-8.77a59 59 0 0 0-1-8.74c-.28-1.56-1.62-2.83-3.41-3.23-2.86-.61-8.11-1-13.37-1m-5.05 19.74V11.24L25.46 18zm1-11.8v10.07L23.45 18z"/></svg>