<svg xmlns="http://www.w3.org/2000/svg" width="36" height="27" viewBox="0 0 36 27"><path d="M17.96 27c-5.09 0-10.14-.38-13.18-.98a5.1 5.1 0 0 1-4.04-3.88A45 45 0 0 1 0 13.5c0-3 .23-5.91.66-8.61C.99 2.98 2.53 1.49 4.68 1 7.52.39 12.69.01 17.88.01s10.28.39 13.1.98c2.11.48 3.69 2 4.03 3.88.51 2.57.85 5.47.98 8.61a65 65 0 0 1-.82 8.64c-.34 1.91-1.88 3.41-4.02 3.89-3.05.61-8.1.98-13.19.98ZM17.88.97c-5.12 0-10.22.38-12.99.97-1.38.31-2.97 1.29-3.28 3.11a55 55 0 0 0-.65 8.46c0 4 .4 6.8.72 8.45.28 1.51 1.56 2.73 3.29 3.12 2.97.59 7.95.97 12.98.97s10.01-.37 13-.97c1.37-.31 2.96-1.29 3.28-3.11.31-1.92.72-4.9.8-8.47a57 57 0 0 0-.96-8.44c-.27-1.51-1.56-2.73-3.29-3.12-2.76-.59-7.82-.97-12.9-.97m-4.87 19.06V6.97l11.37 6.53zm.96-11.39v9.72l8.46-4.86-8.46-4.87Z"/></svg>